<?xml version="1.0" encoding="utf-8" ?>
<svg baseProfile="full" height="200mm" version="1.1" viewBox="0,0,200,200" width="200mm" xmlns="http://www.w3.org/2000/svg" xmlns:ev="http://www.w3.org/2001/xml-events" xmlns:xlink="http://www.w3.org/1999/xlink"><defs /><rect fill="#1a1a1a" height="200" width="200" x="0" y="0" /><text alignment-baseline="middle" fill="#e1ed5e" style="dominant-baseline: central; font-size:9.0px; font-family:Arial;" text-anchor="middle" x="100.0" y="100.0">2025</text><line stroke="#e1ed5e" stroke-width="0.3" x1="100.0" x2="100.0" y1="15.0" y2="10.0" /><path d="M 100.0 14.0 a86.0,86.0 0 0,1 42.46469731375804,11.215312516191453" fill="none" id="id13" stroke="none" /><text fill="#e1ed5e" style="font-size:6.75px; font-family:Arial;" text-anchor="middle"><textPath startOffset="22.20632615414155" xlink:href="#id13">January</textPath></text><path d="M 100.0 79.0 l 0.0 -35.9616674218396 a56.9616674218396,56.9616674218396 0 0,0 0.9805014685623307,0.008439485695277214 l -0.6190209892898023 35.95633931275288" fill="#ff0801" stroke="none" /><path d="M 100.72285384407766 79.0124445844662 l 1.2426732078908256 -36.08014680655949 a57.10154055278659,57.10154055278659 0 0,0 0.9820354693014873,0.0422885130746057 l -1.8635495095816443 36.053410566960686" fill="#ff0c01" stroke="none" /><path d="M 101.08401301168833 79.027996857942 l 1.861486594017942 -36.01350009428437 a57.06157680108745,57.06157680108745 0 0,0 0.9804753553755012,0.05914495099830287 l -2.481123998233055 35.97612187390576" fill="#ff0b01" stroke="none" /><path d="M 102.16513564639614 79.11191278185805 l 3.6879902290425814 -35.57978535530629 a56.77041232442229,56.77041232442229 0 0,0 0.9711343982102066,0.10911826497886466 l -4.299891330762513 35.51103113685683" fill="#ff0100" stroke="none" /><path d="M 102.88285421437855 79.19881850522331 l 4.912085760385399 -35.44306434576698 a56.78183053919348,56.78183053919348 0 0,0 0.9669973308980502,0.14251026994536375 l -5.521452071712106 35.35325959166064" fill="#ff0200" stroke="none" /><path d="M 103.2404852339499 79.25152402106235 l 5.554598403454934 -35.565491963760564 a56.996635704576356,56.996635704576356 0 0,0 0.9680493001983134,0.15973642909919702 l -6.165976909792122 35.46460927172174" fill="#ff0901" stroke="none" /><path d="M 103.59715602781102 79.31037775812273 l 6.171233288672814 -35.49484218143177 a57.0273221567739,57.0273221567739 0 0,0 0.9656759042564496,0.17647109905782454 l -6.781304314032164 35.383355601023204" fill="#ff0a01" stroke="none" /><path d="M 103.95276090670814 79.375362276772 l 8.171845124167277 -42.6388919527741 a64.41490711372904,64.41490711372904 0 0,0 1.0871812767695521,0.21807833644953456 l -8.904592810403953 42.49190966024736" fill="#ffec16" stroke="none" /><path d="M 104.307194497241 79.44645832069477 l 7.3289148959454335 -34.97291749290299 a56.732589487992755,56.732589487992755 0 0,0 0.9540727026331294,0.20852333935910225 l -7.929830322732091 34.84158065544801" fill="#ff0000" stroke="none" /><path d="M 104.66035177308747 79.52364482259891 l 8.638068648374837 -37.953392855946575 a59.92398051653829,59.92398051653829 0 0,0 1.0038017585065435,0.23756744470441687 l -9.290094093843905 37.79907949910129" fill="#ff6709" stroke="none" /><path d="M 105.36241919743992 79.69619591428918 l 11.290601562131275 -42.74976529935902 a65.21560942455822,65.21560942455822 0 0,0 1.0828962219955005,0.29599644411314335 l -12.024795673350486 42.549082314419586" fill="#fcff18" stroke="none" /><path d="M 105.71112130821622 79.79150937346287 l 14.768695754531755 -52.25822279282857 a75.30502945174445,75.30502945174445 0 0,0 1.2443610416371784,0.36326311068037914 l -15.666047013892362 51.996261353229485" fill="#34ff60" stroke="none" /><path d="M 106.40334571778207 80.00007090966166 l 17.714230680848456 -55.32785095813604 a79.09444947893067,79.09444947893067 0 0,0 1.2930706272093415,0.4263050556326742 l -18.663984130300214 55.01473217824413" fill="#3fffbf" stroke="none" /><path d="M 106.74666289553966 80.11325718540242 l 11.95851347876482 -35.24940932713849 a58.22266651563208,58.22266651563208 0 0,0 0.9463068501527563,0.33014787879621676 l -12.56350233298085 35.03834059517006" fill="#ff3104" stroke="none" /><path d="M 108.09893153111575 80.62456947434976 l 14.322668675099578 -34.264750947717665 a58.13774354327141,58.13774354327141 0 0,0 0.9200055459452533,0.39389836164356506 l -14.910357978835146 34.013133058111315" fill="#ff2e04" stroke="none" /><path d="M 108.43124777332544 80.76684994638697 l 24.86110226409542 -56.71252028155877 a82.92240598096964,82.92240598096964 0 0,0 1.3023472510610001,0.5843252490399 l -25.8336316336232 56.276174702002336" fill="#4ae9ff" stroke="none" /><path d="M 109.08828744355905 81.06846463323043 l 24.095800794937716 -50.19323032782039 a76.67735613955595,76.67735613955595 0 0,0 1.1849526303314277,0.5814511095108593 l -24.956224692279577 49.771024058174696" fill="#38ff84" stroke="none" /><path d="M 109.73455568895987 81.39251694778311 l 28.368378673768238 -54.22580570263457 a82.19806298142274,82.19806298142274 0 0,0 1.2480599784478332,0.6666704174326163 l -29.297583698744383 53.72945655870019" fill="#48f8ff" stroke="none" /><path d="M 110.05341064243156 81.56283822128135 l 22.685769375127105 -41.603910843808656 a68.3870185772542,68.3870185772542 0 0,0 1.0286577042256109,0.5724468986974867 l -23.39855116842475 41.20724854755099" fill="#a8ff21" stroke="none" /><line stroke="#e1ed5e" stroke-width="0.3" x1="143.23703022742887" x2="145.7803849466894" y1="26.81831364943548" y2="22.513508569990506" /><path d="M 143.74570117128098 25.957352633546492 a86.0,86.0 0 0,1 28.547481713284135,27.462654790039103" fill="none" id="id14" stroke="none" /><text fill="#e1ed5e" style="font-size:6.75px; font-family:Arial;" text-anchor="middle"><textPath startOffset="19.985693538727396" xlink:href="#id14">February</textPath></text><path d="M 110.68208982089419 81.91981866633111 l 19.873914369539488 -33.637984854634254 a60.070276393294066,60.070276393294066 0 0,0 0.8857160125788095,0.5336339872346263 l -20.449992448335934 33.29090425794101" fill="#ff6b09" stroke="none" /><path d="M 111.2981086023043 82.29822771554956 l 33.894325806912875 -53.10531685335132 a84.0,84.0 0 0,0 1.2121318968628794,0.7884043033618879 l -34.803424729560035 52.514013625829904" fill="#4dd2ff" stroke="none" /><line stroke="#e1ed5e" stroke-width="0.3" x1="172.23445277983987" x2="176.4835382374775" y1="55.19839476539836" y2="52.563006222186495" /><path d="M 173.08426987136738 54.67131705675599 a86.0,86.0 0 0,1 12.851231095245387,41.99856678651699" fill="none" id="id15" stroke="none" /><text fill="#e1ed5e" style="font-size:6.75px; font-family:Arial;" text-anchor="middle"><textPath startOffset="22.20632615414155" xlink:href="#id15">March</textPath></text><line stroke="#e1ed5e" stroke-width="0.3" x1="184.98032266829074" x2="189.97916517819016" y1="98.17113171792111" y2="98.06355123074" /><path d="M 185.9800911702706 98.14961562048488 a86.0,86.0 0 0,1 -9.607161424134198,41.387399972396054" fill="none" id="id16" stroke="none" /><text fill="#e1ed5e" style="font-size:6.75px; font-family:Arial;" text-anchor="middle"><textPath startOffset="21.466115282336823" xlink:href="#id16">April</textPath></text><line stroke="#e1ed5e" stroke-width="0.3" x1="174.80103733775053" x2="179.2010983576182" y1="140.37084112569926" y2="142.7455964860345" /><path d="M 175.68104954172406 140.8457921977663 a86.0,86.0 0 0,1 -30.038265399797805,32.042727171017184" fill="none" id="id17" stroke="none" /><text fill="#e1ed5e" style="font-size:6.75px; font-family:Arial;" text-anchor="middle"><textPath startOffset="22.206326154141568" xlink:href="#id17">May</textPath></text><line stroke="#e1ed5e" stroke-width="0.3" x1="143.8653032363475" x2="146.44561519142675" y1="172.8068346515853" y2="177.08958963109032" /><path d="M 144.38136562736335 173.6633856474863 a86.0,86.0 0 0,1 -40.68145358897372,12.25698825130547" fill="none" id="id18" stroke="none" /><text fill="#e1ed5e" style="font-size:6.75px; font-family:Arial;" text-anchor="middle"><textPath startOffset="21.466115282336833" xlink:href="#id18">June</textPath></text><line stroke="#e1ed5e" stroke-width="0.3" x1="102.19456741930631" x2="102.32365962044197" y1="184.97166512339345" y2="189.96999836594603" /><path d="M 102.22038585953345 185.97133177190398 a86.0,86.0 0 0,1 -42.740103519485714,-10.115201625700543" fill="none" id="id19" stroke="none" /><text fill="#e1ed5e" style="font-size:6.75px; font-family:Arial;" text-anchor="middle"><textPath startOffset="22.20632615414155" xlink:href="#id19">July</textPath></text><line stroke="#e1ed5e" stroke-width="0.3" x1="58.666819895761336" x2="56.23545636021788" y1="174.27360380694188" y2="178.64263932499728" /><path d="M 58.180547188652646 175.14741091055294 a86.0,86.0 0 0,1 -31.652253787137756,-30.449443065178592" fill="none" id="id20" stroke="none" /><text fill="#e1ed5e" style="font-size:6.75px; font-family:Arial;" text-anchor="middle"><textPath startOffset="22.20632615414155" xlink:href="#id20">August</textPath></text><line stroke="#e1ed5e" stroke-width="0.3" x1="26.63291911575756" x2="22.317208475507996" y1="142.92168965132927" y2="145.44649492493687" /><path d="M 25.769776987707644 143.4266507060508 a86.0,86.0 0 0,1 -11.730757126820373,-40.83630448921669" fill="none" id="id21" stroke="none" /><text fill="#e1ed5e" style="font-size:6.75px; font-family:Arial;" text-anchor="middle"><textPath startOffset="21.46611528233685" xlink:href="#id21">September</textPath></text><line stroke="#e1ed5e" stroke-width="0.3" x1="15.007084014347285" x2="10.007500721073583" y1="101.09737516637583" y2="101.16192664675087" /><path d="M 14.007167355692545 101.11028546245083 a86.0,86.0 0 0,1 10.666146001902534,-42.60595125391555" fill="none" id="id22" stroke="none" /><text fill="#e1ed5e" style="font-size:6.75px; font-family:Arial;" text-anchor="middle"><textPath startOffset="22.20632615414155" xlink:href="#id22">October</textPath></text><line stroke="#e1ed5e" stroke-width="0.3" x1="26.266209847984243" x2="21.928928074336255" y1="57.711370442889674" y2="55.22380399835377" /><path d="M 25.398753493254645 57.213857153982495 a86.0,86.0 0 0,1 29.58750427330803,-30.492523968695096" fill="none" id="id23" stroke="none" /><text fill="#e1ed5e" style="font-size:6.75px; font-family:Arial;" text-anchor="middle"><textPath startOffset="21.46611528233685" xlink:href="#id23">November</textPath></text><line stroke="#e1ed5e" stroke-width="0.3" x1="56.762969772571076" x2="54.21961505331055" y1="26.818313649435495" y2="22.513508569990535" /><path d="M 56.25429882871897 25.957352633546506 a86.0,86.0 0 0,1 42.265352541879196,-11.944610805530505" fill="none" id="id24" stroke="none" /><text fill="#e1ed5e" style="font-size:6.75px; font-family:Arial;" text-anchor="middle"><textPath startOffset="22.20632615414155" xlink:href="#id24">December</textPath></text></svg>