<?xml version="1.0" encoding="utf-8" ?>
<svg baseProfile="full" height="200mm" version="1.1" viewBox="0,0,200,200" width="200mm" xmlns="http://www.w3.org/2000/svg" xmlns:ev="http://www.w3.org/2001/xml-events" xmlns:xlink="http://www.w3.org/1999/xlink"><defs /><rect fill="#1a1a1a" height="200" width="200" x="0" y="0" /><text alignment-baseline="middle" fill="#e1ed5e" style="dominant-baseline: central; font-size:9.0px; font-family:Arial;" text-anchor="middle" x="100.0" y="100.0">2025</text><line stroke="#e1ed5e" stroke-width="0.3" x1="100.0" x2="100.0" y1="15.0" y2="10.0" /><path d="M 100.0 14.0 a86.0,86.0 0 0,1 42.46469731375804,11.215312516191453" fill="none" id="id13" stroke="none" /><text fill="#e1ed5e" style="font-size:6.75px; font-family:Arial;" text-anchor="middle"><textPath startOffset="22.20632615414155" xlink:href="#id13">January</textPath></text><path d="M 100.0 79.0 l 0.0 -20.91615606593667 a41.91615606593667,41.91615606593667 0 0,0 0.7215177230465183,0.006210330833536109 l -0.36003724377398993 20.91305711171169" fill="#ffeb16" stroke="none" /><path d="M 100.72285384407766 79.0124445844662 l 0.7227681200181978 -20.98506647746816 a41.997509586116934,41.997509586116934 0 0,0 0.7222755049449077,0.031102702589811543 l -1.0838844573524369 20.96951604835415" fill="#ffec16" stroke="none" /><path d="M 101.08401301168833 79.027996857942 l 1.0826846168841096 -20.946303173784926 a41.97426572320828,41.97426572320828 0 0,0 0.721233716429723,0.04350678737888622 l -1.4430803821534444 20.924563117025734" fill="#ffec16" stroke="none" /><path d="M 102.16513564639614 79.11191278185805 l 2.1450223176653296 -20.694044426654276 a41.80491757915958,41.80491757915958 0 0,0 0.7151294453078919,0.08035312563442357 l -2.500918466482947 20.654055347549253" fill="#ffea16" stroke="none" /><path d="M 102.88285421437855 79.19881850522331 l 2.8569852217444955 -20.614524254814853 a41.81155868284777,41.81155868284777 0 0,0 0.7120528743625685,0.10493808421016233 l -3.21140707653572 20.56229168644372" fill="#ffea16" stroke="none" /><path d="M 103.2404852339499 79.25152402106235 l 3.2306857668037146 -20.685731052172073 a41.93649444598174,41.93649444598174 0 0,0 0.7122629888476647,0.11752949606465236 l -3.5862779617902545 20.627055293167796" fill="#ffec16" stroke="none" /><path d="M 103.59715602781102 79.31037775812273 l 3.5893351960313873 -20.644639468295296 a41.95434241214373,41.95434241214373 0 0,0 0.7104366120322763,0.12982774985235504 l -3.944166929166564 20.579796237092204" fill="#ffec16" stroke="none" /><path d="M 103.95276090670814 79.375362276772 l 4.752938342896306 -24.79978773234572 a46.25113649839902,46.25113649839902 0 0,0 0.7806169702549358,0.15658442056996238 l -5.179121722618367 24.71429935569855" fill="#dbff1b" stroke="none" /><path d="M 104.307194497241 79.44645832069477 l 4.262670191551455 -20.34107572883132 a41.782918923192476,41.782918923192476 0 0,0 0.7026638963727935,0.15357511195357537 l -4.612176812077776 20.264687118781875" fill="#ffea15" stroke="none" /><path d="M 104.66035177308747 79.52364482259891 l 5.024104968168363 -22.074590671640664 a43.639107404040004,43.639107404040004 0 0,0 0.7310097288971255,0.1730063848528579 l -5.403338384028012 21.984838374646937" fill="#fcff18" stroke="none" /><path d="M 105.36241919743992 79.69619591428918 l 6.566880828457584 -24.864274292257413 a46.71684389453295,46.71684389453295 0 0,0 0.7757267654680969,0.21203542825076097 l -6.993905483149391 24.747552323180358" fill="#d6ff1c" stroke="none" /><path d="M 105.71112130821622 79.79150937346287 l 8.589822648338167 -30.39461799258744 a52.585089141004865,52.585089141004865 0 0,0 0.8689304920863941,0.2536646382829872 l -9.111743358147988 30.24225502538575" fill="#90ff24" stroke="none" /><path d="M 106.40334571778207 80.00007090966166 l 10.303015407000183 -32.17998631316131 a54.78910542752105,54.78910542752105 0 0,0 0.8957162403447225,0.2953035616432941 l -10.855414469587323 31.99786902725878" fill="#77ff27" stroke="none" /><path d="M 106.74666289553966 80.11325718540242 l 6.955354191573165 -20.501889917116557 a42.64958295450053,42.64958295450053 0 0,0 0.6931938181698707,0.24184171194205173 l -7.3072300138063095 20.3791273520023" fill="#fff517" stroke="none" /><path d="M 108.09893153111575 80.62456947434976 l 8.330402752881044 -19.92918932195198 a42.60018974581966,42.60018974581966 0 0,0 0.6741302368452541,0.2886273859957095 l -8.672216747516613 19.782842407993478" fill="#fff417" stroke="none" /><path d="M 108.43124777332544 80.76684994638697 l 14.45980490357449 -32.98534273139112 a57.015535438984855,57.015535438984855 0 0,0 0.8954639577603906,0.4017685756992371 l -15.025450979801661 32.731553825175354" fill="#5eff2a" stroke="none" /><path d="M 109.08828744355905 81.06846463323043 l 14.014687473989678 -29.19356954935357 a53.383266790528516,53.383266790528516 0 0,0 0.8249716159225863,0.40480998912082167 l -14.515130356922697 28.948004400097915" fill="#86ff25" stroke="none" /><path d="M 109.73455568895987 81.39251694778311 l 16.499719791017778 -31.53901073532158 a56.59424042376566,56.59424042376566 0 0,0 0.8593025665278748,0.4590096715067464 l -17.040167404073962 31.250322337313076" fill="#63ff29" stroke="none" /><path d="M 110.05341064243156 81.56283822128135 l 13.194579860828162 -24.197818247825346 a48.56141044392615,48.56141044392615 0 0,0 0.7304466552343791,0.4064927728001183 l -13.609150605134577 23.967110077465048" fill="#bfff1e" stroke="none" /><line stroke="#e1ed5e" stroke-width="0.3" x1="143.23703022742887" x2="145.7803849466894" y1="26.81831364943548" y2="22.513508569990506" /><path d="M 143.74570117128098 25.957352633546492 a86.0,86.0 0 0,1 28.547481713284135,27.462654790039103" fill="none" id="id14" stroke="none" /><text fill="#e1ed5e" style="font-size:6.75px; font-family:Arial;" text-anchor="middle"><textPath startOffset="19.985693538727396" xlink:href="#id14">February</textPath></text><path d="M 110.68208982089419 81.91981866633111 l 11.559138504848704 -19.564647342683006 a43.72419654504487,43.72419654504487 0 0,0 0.6446985654524574,0.38842367210362144 l -11.894199136518798 19.36277706112077" fill="#fbff18" stroke="none" /><path d="M 111.2981086023043 82.29822771554956 l 19.713741301565854 -30.887307927249967 a57.64228959955726,57.64228959955726 0 0,0 0.83178640275989,0.541017013999085 l -20.242494730110025 30.543391989091354" fill="#57ff2a" stroke="none" /><path d="M 111.90073688211348 82.69761687909136 l 11.840755700452819 -17.215176975993593 a41.89415740996956,41.89415740996956 0 0,0 0.5906454972606111,0.41378491649815563 l -12.135332337297081 17.0088072167315" fill="#ffeb16" stroke="none" /><path d="M 112.48926042617603 83.11751280151076 l 3.69809879520384 -4.998943367208906 a27.218148397043127,27.218148397043127 0 0,0 0.374254525581967,0.28188074955832826 l -3.78359947454419 4.93454602814473" fill="#ff1b02" stroke="none" /><path d="M 112.77801427241765 83.33499621200491 l 5.776044321662481 -7.533079745255322 a30.492627584298532,30.492627584298532 0 0,0 0.4137812461510774,0.3229628259102871 l -5.904858122972988 7.432538530121811" fill="#ff4c07" stroke="none" /><path d="M 113.06298171725822 83.55741782278167 l 14.425462535576038 -18.1575583828787 a44.190319010159314,44.190319010159314 0 0,0 0.5915118328622259,0.4782947652839159 l -14.735877767002755 17.906557520330654" fill="#f5ff19" stroke="none" /><path d="M 113.34407831869373 83.78471172551755 l 21.322462497459686 -25.91036022576311 a54.55583666047357,54.55583666047357 0 0,0 0.7199875688257013,0.6029688831575121 l -21.765307603244505 25.53949018521178" fill="#79ff26" stroke="none" /><path d="M 113.6212207817346 84.01681056812373 l 4.92764367253209 -5.782114799613222 a28.597007550302408,28.597007550302408 0 0,0 0.37190571914918547,0.32251297482636104 l -5.026443190328039 5.69643683136719" fill="#ff3004" stroke="none" /><path d="M 113.89432698308785 84.25364557470407 l 14.362286290104127 -16.276689799860204 a42.70727754279164,42.70727754279164 0 0,0 0.5470375432714036,0.49113570758804304 l -14.64033482097152 16.027055083502862" fill="#fff617" stroke="none" /><path d="M 114.16331599549186 84.49514656593476 l 21.578663218573322 -23.622576140610562 a52.99476222476974,52.99476222476974 0 0,0 0.6682188208231281,0.6210365688371768 l -21.982089923191296 23.247634985698745" fill="#8bff24" stroke="none" /><path d="M 114.94478906791727 85.2469230424477 l 20.48387837893408 -20.221110698865907 a49.78337352255208,49.78337352255208 0 0,0 0.5967740090020378,0.6150280741929732 l -20.828916651639226 19.86551842912282" fill="#b0ff20" stroke="none" /><path d="M 115.4437574822437 85.77008943001954 l 15.648579422999228 -14.418633936238459 a42.27851128592323,42.27851128592323 0 0,0 0.48853093470552283,0.5394480598788592 l -15.894453998320786 14.147133089090051" fill="#fff016" stroke="none" /><path d="M 115.68641384162765 86.03803664274999 l 16.083581413496358 -14.315469208944629 a42.53170336403526,42.53170336403526 0 0,0 0.4820424503111332,0.5510578501687975 l -16.32761572738534 14.036495802572883" fill="#fff316" stroke="none" /><path d="M 116.15771136456269 86.58626213691792 l 16.10437820652257 -13.369461976156055 a41.93068348025457,41.93068348025457 0 0,0 0.45624878111928485,0.5593070581891141 l -16.33212547971826 13.09027074835884" fill="#ffeb16" stroke="none" /><path d="M 116.38621287248628 86.86637796730983 l 13.950984691511776 -11.181775883664647 a38.87909633553386,38.87909633553386 0 0,0 0.4140548212207768,0.5258075750249604 l -14.141393593326516 10.939975914686649" fill="#ffc312" stroke="none" /><path d="M 116.82858285166822 87.43820079747576 l 13.946762046298923 -10.410646332803127 a38.40384235284816,38.40384235284816 0 0,0 0.39087318733030063,0.5331505882464069 l -14.123897846142851 10.169033300885227" fill="#ffbc11" stroke="none" /><path d="M 117.65298651832404 88.62581576622439 l 17.48306509613121 -11.264700347902801 a41.79786140649088,41.79786140649088 0 0,0 0.3844853980795354,0.6081635653937565 l -17.6743780904567 10.962089134794839" fill="#ffea16" stroke="none" /><line stroke="#e1ed5e" stroke-width="0.3" x1="172.23445277983987" x2="176.4835382374775" y1="55.19839476539836" y2="52.563006222186495" /><path d="M 173.08426987136738 54.67131705675599 a86.0,86.0 0 0,1 12.851231095245387,41.99856678651699" fill="none" id="id15" stroke="none" /><text fill="#e1ed5e" style="font-size:6.75px; font-family:Arial;" text-anchor="middle"><textPath startOffset="22.20632615414155" xlink:href="#id15">March</textPath></text><path d="M 119.196687751892 91.48605970444005 l 30.644354790717433 -13.591105426945859 a54.52304621101316,54.52304621101316 0 0,0 0.3731175365809246,0.8612067175208215 l -30.87376303714104 13.061599564838435" fill="#7aff26" stroke="none" /><path d="M 119.34039704204932 91.81776055985345 l 20.175649592487673 -8.535605317063181 a42.906925722417675,42.906925722417675 0 0,0 0.28191548724182935,0.6826807136919535 l -20.3195867666157 8.187050032917924" fill="#fff817" stroke="none" /><path d="M 119.47837535516314 92.15188598940014 l 34.04615503386056 -13.717679295951626 a57.70579515357552,57.70579515357552 0 0,0 0.3632894442146664,0.9245320096524051 l -34.277238027956926 13.129598281403435" fill="#57ff2a" stroke="none" /><path d="M 119.7369772167798 92.82701384747503 l 10.420097213847596 -3.786963535598972 a32.08690753844329,32.08690753844329 0 0,0 0.18418942143332553,0.520728297606249 l -10.483739716090732 3.6070376115661085" fill="#ff6409" stroke="none" /><path d="M 119.97218684219823 93.5106431181261 l 8.618665362013555 -2.800374131358516 a30.062201051508083,30.062201051508083 0 0,0 0.1556714052480557,0.49352089568394947 l -8.665592251029816 2.6516030692481474" fill="#ff4606" stroke="none" /><path d="M 120.08093135843002 93.85539295169968 l 25.353396318017797 -7.757939855147399 a47.51377633711507,47.51377633711507 0 0,0 0.23257790540042722,0.7841370763401041 l -25.483180120529926 7.320373392060765" fill="#ccff1d" stroke="none" /><path d="M 120.18372546131832 94.20196356495316 l 20.123486252229114 -5.780731942385818 a41.93732458394276,41.93732458394276 0 0,0 0.19333751556086437,0.6955379103541796 l -20.22001053835634 5.433482728612686" fill="#ffec16" stroke="none" /><path d="M 120.37134235888165 94.90015583598534 l 20.346378465411064 -5.09359460204744 a41.97426572320828,41.97426572320828 0 0,0 0.16943052221260177,0.7023988983517985 l -20.431041787884485 4.742610472036235" fill="#ffec16" stroke="none" /><path d="M 120.45610955862082 95.25157060432595 l 17.978443444551406 -4.173294491600634 a39.45645728742539,39.45645728742539 0 0,0 0.14787831702546364,0.6629094992010997 l -18.047616148578907 3.8632068228495706" fill="#ffcb12" stroke="none" /><path d="M 120.6074358757038 95.95851677861258 l 30.481034584304332 -5.9778708319668 a52.06168715657983,52.06168715657983 0 0,0 0.16489740158339444,0.8808885129056452 l -30.57941770979759 5.452304241598592" fill="#96ff23" stroke="none" /><path d="M 120.67395015179393 96.31383870115 l 29.986503497237738 -5.346587752595324 a51.45942206585761,51.45942206585761 0 0,0 0.14797803360963335,0.8733747309202484 l -30.074093392367594 4.829627233359238" fill="#9dff22" stroke="none" /><path d="M 120.73433829027371 96.67025291283417 l 20.63475248554318 -3.313754508160784 a41.8991382377357,41.8991382377357 0 0,0 0.10822768187472571,0.71308519981779 l -20.688736060857206 2.958070195950912" fill="#ffeb16" stroke="none" /><path d="M 120.83666639777658 97.38593545837742 l 20.718468128097125 -2.599235974530714 a41.88087520259319,41.88087520259319 0 0,0 0.08358155693530606,0.7160757374250708 l -20.76014003803602 2.2422164987807904" fill="#ffeb16" stroke="none" /><path d="M 120.96714384426684 98.82574320788733 l 20.933575858905236 -1.172376830058648 a41.96637941257857,41.96637941257857 0 0,0 0.03418539653587129,0.7215996905298724 l -20.950654863674604 0.8118660329057756" fill="#ffec16" stroke="none" /><line stroke="#e1ed5e" stroke-width="0.3" x1="184.98032266829074" x2="189.97916517819016" y1="98.17113171792111" y2="98.06355123074" /><path d="M 185.9800911702706 98.14961562048488 a86.0,86.0 0 0,1 -9.607161424134198,41.387399972396054" fill="none" id="id16" stroke="none" /><text fill="#e1ed5e" style="font-size:6.75px; font-family:Arial;" text-anchor="middle"><textPath startOffset="21.466115282336823" xlink:href="#id16">April</textPath></text><path d="M 120.99513854157772 99.54816195383933 l 27.247120145471648 -0.5863874394376689 a48.25342926038661,48.25342926038661 0 0,0 0.010723733852573355,0.8305650048511477 l -27.253176886441935 0.11728617652605844" fill="#c3ff1e" stroke="none" /><path d="M 120.99980553446 99.90962569577887 l 14.0578411204219 -0.060499017861119 a35.05797130094478,35.05797130094478 0 0,0 -0.0025971324274954937,0.6034821113666083 l -14.056799690704901 -0.18149257170917402" fill="#ff8e0d" stroke="none" /><path d="M 120.9904718944345 100.63252640178507 l 21.04814030557666 0.6342641803724152 a42.0576945882911,42.0576945882911 0 0,0 -0.028034191496741388,0.7234379154012688 l -21.034103981228714 -0.9964793427876901" fill="#ffed16" stroke="none" /><path d="M 120.9764740272857 100.99374915477107 l 62.92942208185712 2.9812474643131925 a84.0,84.0 0 0,0 -0.0808545964498828,1.4437131346583068 l -62.86878113451971 -4.064032315306923" fill="#4dd2ff" stroke="none" /><path d="M 120.95626037817324 101.35467743843564 l 19.186364726595297 1.240265913463599 a40.22641024627426,40.22641024627426 0 0,0 -0.05061524720412923,0.6906048340992116 l -19.16217292072683 -1.5703438840595807" fill="#ffd513" stroke="none" /><path d="M 120.92983693683757 101.71520430193887 l 21.055596323895298 1.7255103087339336 a42.1261809700755,42.1261809700755 0 0,0 -0.06544684102160472,0.7222004370761054 l -21.02277488659662 -2.0876921343586097" fill="#ffee16" stroke="none" /><path d="M 120.89721153311464 102.0752229133903 l 11.69226121831461 1.161114168325347 a32.74977270032019,32.74977270032019 0 0,0 -0.06053670488524339,0.5604947031396249 l -11.670542211928314 -1.3622051933497632" fill="#ff6d0a" stroke="none" /><path d="M 120.8583938346157 102.4346265915055 l 20.759036738633124 2.423029465195021 a41.89996837569672,41.89996837569672 0 0,0 -0.08978263521481643,0.7156559405848588 l -20.714252594171462 -2.7800031600672743" fill="#ffeb16" stroke="none" /><path d="M 120.64145759157962 103.86396538481128 l 54.324886065675486 10.169314756978025 a76.26851010001187,76.26851010001187 0 0,0 -0.25266692188114587,1.2883431911885241 l -54.14178921081868 -11.102921675234494" fill="#43ffde" stroke="none" /><path d="M 120.49622156327973 104.57218783832717 l 20.557393430616873 4.585833732377596 a42.06267541605724,42.06267541605724 0 0,0 -0.16372282304549365,0.705313636655607 l -20.475410041640828 -4.9390160263817675" fill="#ffed16" stroke="none" /><path d="M 120.13307415673323 105.97154293290107 l 26.084973397003992 7.736897869205806 a48.20818674151086,48.20818674151086 0 0,0 -0.2428159763465079,0.7935366599387542 l -25.94793064815135 -8.184761501696617" fill="#c3ff1e" stroke="none" /><path d="M 120.02730092923936 106.31721596034902 l 32.149609180356606 10.140958332364047 a54.711072459184884,54.711072459184884 0 0,0 -0.2910309880429785,0.8957012807077293 l -31.97028594129738 -10.692858513049572" fill="#77ff26" stroke="none" /><path d="M 119.9155931802556 106.66101706037122 l 15.776516169337555 5.276651436190423 a37.63554966992133,37.63554966992133 0 0,0 -0.210775510651153,0.6126122957817897 l -15.683349827743172 -5.547436435061512" fill="#ffb210" stroke="none" /><path d="M 119.67450827220406 107.3425965602758 l 19.690063087614746 7.348401672787375 a42.01660275922046,42.01660275922046 0 0,0 -0.25871367089592634,0.6754197568212538 l -19.560655137125313 -7.686244996441773" fill="#ffed16" stroke="none" /><path d="M 119.12269723197855 108.67885076344098 l 32.01579617606781 14.530393579634582 a56.15883306320908,56.15883306320908 0 0,0 -0.40708570861309284,0.8768264003078274 l -31.76093585061488 -15.07934004722124" fill="#67ff28" stroke="none" /><path d="M 118.81262510543309 109.33194174019688 l 20.367639498264673 10.103301592303913 a43.73581847649919,43.73581847649919 0 0,0 -0.34035074444837,0.6715443078801261 l -20.190710084030034 -10.452400111886734" fill="#fbff18" stroke="none" /><line stroke="#e1ed5e" stroke-width="0.3" x1="174.80103733775053" x2="179.2010983576182" y1="140.37084112569926" y2="142.7455964860345" /><path d="M 175.68104954172406 140.8457921977663 a86.0,86.0 0 0,1 -30.038265399797805,32.042727171017184" fill="none" id="id17" stroke="none" /><text fill="#e1ed5e" style="font-size:6.75px; font-family:Arial;" text-anchor="middle"><textPath startOffset="22.206326154141568" xlink:href="#id17">May</textPath></text><path d="M 118.48025628344425 109.97397251340804 l 23.3430394573679 12.59846348211978 a47.525813337549906,47.525813337549906 0 0,0 -0.3947439526701329,0.7165749352281481 l -23.12271909524626 -12.998408935745733" fill="#ccff1d" stroke="none" /><path d="M 117.94076556474637 110.91462005526583 l 27.44908053990368 16.699191786338634 a53.12965964343598,53.12965964343598 0 0,0 -0.48205137354669353,0.7772203026560908 l -27.157564526689022 -17.16920842036" fill="#89ff24" stroke="none" /><path d="M 117.55443506779139 111.5257021239791 l 3.704216879150506 2.432074868079235 a25.43127643594102,25.43127643594102 0 0,0 -0.2434098851936024,0.3638647520775232 l -3.6618038885461823 -2.495476534362565" fill="#ff0000" stroke="none" /><path d="M 116.498646956653 112.99209946851258 l 23.614124613967476 18.595285822683906 a51.056805154761435,51.056805154761435 0 0,0 -0.5496680530093792,0.6857954114560341 l -23.29053864890324 -18.999009067718188" fill="#a1ff22" stroke="none" /><line stroke="#e1ed5e" stroke-width="0.3" x1="143.8653032363475" x2="146.44561519142675" y1="172.8068346515853" y2="177.08958963109032" /><path d="M 144.38136562736335 173.6633856474863 a86.0,86.0 0 0,1 -40.68145358897372,12.25698825130547" fill="none" id="id18" stroke="none" /><text fill="#e1ed5e" style="font-size:6.75px; font-family:Arial;" text-anchor="middle"><textPath startOffset="21.466115282336833" xlink:href="#id18">June</textPath></text><line stroke="#e1ed5e" stroke-width="0.3" x1="102.19456741930631" x2="102.32365962044197" y1="184.97166512339345" y2="189.96999836594603" /><path d="M 102.22038585953345 185.97133177190398 a86.0,86.0 0 0,1 -42.740103519485714,-10.115201625700543" fill="none" id="id19" stroke="none" /><text fill="#e1ed5e" style="font-size:6.75px; font-family:Arial;" text-anchor="middle"><textPath startOffset="22.20632615414155" xlink:href="#id19">July</textPath></text><line stroke="#e1ed5e" stroke-width="0.3" x1="58.666819895761336" x2="56.23545636021788" y1="174.27360380694188" y2="178.64263932499728" /><path d="M 58.180547188652646 175.14741091055294 a86.0,86.0 0 0,1 -31.652253787137756,-30.449443065178592" fill="none" id="id20" stroke="none" /><text fill="#e1ed5e" style="font-size:6.75px; font-family:Arial;" text-anchor="middle"><textPath startOffset="22.20632615414155" xlink:href="#id20">August</textPath></text><line stroke="#e1ed5e" stroke-width="0.3" x1="26.63291911575756" x2="22.317208475507996" y1="142.92168965132927" y2="145.44649492493687" /><path d="M 25.769776987707644 143.4266507060508 a86.0,86.0 0 0,1 -11.730757126820373,-40.83630448921669" fill="none" id="id21" stroke="none" /><text fill="#e1ed5e" style="font-size:6.75px; font-family:Arial;" text-anchor="middle"><textPath startOffset="21.46611528233685" xlink:href="#id21">September</textPath></text><line stroke="#e1ed5e" stroke-width="0.3" x1="15.007084014347285" x2="10.007500721073583" y1="101.09737516637583" y2="101.16192664675087" /><path d="M 14.007167355692545 101.11028546245083 a86.0,86.0 0 0,1 10.666146001902534,-42.60595125391555" fill="none" id="id22" stroke="none" /><text fill="#e1ed5e" style="font-size:6.75px; font-family:Arial;" text-anchor="middle"><textPath startOffset="22.20632615414155" xlink:href="#id22">October</textPath></text><line stroke="#e1ed5e" stroke-width="0.3" x1="26.266209847984243" x2="21.928928074336255" y1="57.711370442889674" y2="55.22380399835377" /><path d="M 25.398753493254645 57.213857153982495 a86.0,86.0 0 0,1 29.58750427330803,-30.492523968695096" fill="none" id="id23" stroke="none" /><text fill="#e1ed5e" style="font-size:6.75px; font-family:Arial;" text-anchor="middle"><textPath startOffset="21.46611528233685" xlink:href="#id23">November</textPath></text><line stroke="#e1ed5e" stroke-width="0.3" x1="56.762969772571076" x2="54.21961505331055" y1="26.818313649435495" y2="22.513508569990535" /><path d="M 56.25429882871897 25.957352633546506 a86.0,86.0 0 0,1 42.265352541879196,-11.944610805530505" fill="none" id="id24" stroke="none" /><text fill="#e1ed5e" style="font-size:6.75px; font-family:Arial;" text-anchor="middle"><textPath startOffset="22.20632615414155" xlink:href="#id24">December</textPath></text></svg>