<?xml version="1.0" encoding="utf-8" ?>
<svg baseProfile="full" height="200mm" version="1.1" viewBox="0,0,200,200" width="200mm" xmlns="http://www.w3.org/2000/svg" xmlns:ev="http://www.w3.org/2001/xml-events" xmlns:xlink="http://www.w3.org/1999/xlink"><defs /><rect fill="#1a1a1a" height="200" width="200" x="0" y="0" /><text alignment-baseline="middle" fill="#e1ed5e" style="dominant-baseline: central; font-size:9.0px; font-family:Arial;" text-anchor="middle" x="100.0" y="100.0">2025</text><line stroke="#e1ed5e" stroke-width="0.3" x1="100.0" x2="100.0" y1="15.0" y2="10.0" /><path d="M 100.0 14.0 a86.0,86.0 0 0,1 42.46469731375804,11.215312516191453" fill="none" id="id13" stroke="none" /><text fill="#e1ed5e" style="font-size:6.75px; font-family:Arial;" text-anchor="middle"><textPath startOffset="22.20632615414155" xlink:href="#id13">January</textPath></text><path d="M 100.0 79.0 l 0.0 -35.899449300600445 a56.899449300600445,56.899449300600445 0 0,0 0.9794304858820942,0.008430267409227121 l -0.6179500066095658 35.89413040979978" fill="#83ff25" stroke="none" /><path d="M 100.72285384407766 79.0124445844662 l 1.2405232299322886 -36.01772370136795 a57.03908043377472,57.03908043377472 0 0,0 0.9809612767019069,0.042242256081643614 l -1.860325339023527 35.99103371876211" fill="#81ff25" stroke="none" /><path d="M 101.08401301168833 79.027996857942 l 1.858265992558252 -35.951192296127275 a56.999185824296354,56.999185824296354 0 0,0 0.9794033062213968,0.05908028206568804 l -2.4768313476192607 35.913878744681284" fill="#82ff25" stroke="none" /><path d="M 102.16513564639614 79.11191278185805 l 3.681609550958116 -35.51822793715513 a56.70852509809686,56.70852509809686 0 0,0 0.9700757338138483,0.10899931169872298 l -4.292451988281689 35.449592671985805" fill="#86ff25" stroke="none" /><path d="M 102.88285421437855 79.19881850522331 l 4.903587246014757 -35.38174347182961 a56.71992355794782,56.71992355794782 0 0,0 0.9659430520017898,0.14235489664152615 l -5.5118992784452026 35.29209409102712" fill="#85ff25" stroke="none" /><path d="M 103.2404852339499 79.25152402106235 l 5.544988262944845 -35.503959274940144 a56.93435708389402,56.93435708389402 0 0,0 0.9669915399564398,0.1595618895960484 l -6.155309009040159 35.40325112240447" fill="#83ff25" stroke="none" /><path d="M 103.59715602781102 79.31037775812273 l 6.160556293736907 -35.433431725450866 a56.96499044474347,56.96499044474347 0 0,0 0.964620406117972,0.17627821351959208 l -6.76957182095778 35.32213803058053" fill="#82ff25" stroke="none" /><path d="M 103.95276090670814 79.375362276772 l 8.157706823940012 -42.56512140932568 a64.33979396831499,64.33979396831499 0 0,0 1.0859135328731082,0.21782403895022331 l -8.889186766280245 42.41839341429825" fill="#30ff36" stroke="none" /><path d="M 104.307194497241 79.44645832069477 l 7.316234969005494 -34.91241003102321 a56.67076769984056,56.67076769984056 0 0,0 0.953033044809711,0.20829611042724863 l -7.916110737968733 34.78130042250009" fill="#86ff25" stroke="none" /><path d="M 104.66035177308747 79.52364482259891 l 8.623123723932586 -37.88772880398678 a59.85663722818405,59.85663722818405 0 0,0 1.0026736740453495,0.2373004635593994 l -9.27402108494046 37.733682428286514" fill="#5eff29" stroke="none" /><path d="M 105.36241919743992 79.69619591428918 l 11.27106742850462 -42.67580293134254 a65.13911096536361,65.13911096536361 0 0,0 1.0816259756053912,0.29564923779089114 l -12.003991293333721 42.47546715272536" fill="#31ff42" stroke="none" /><path d="M 105.71112130821622 79.79150937346287 l 14.743144088858948 -52.16780962028774 a75.21107505116868,75.21107505116868 0 0,0 1.2428085132520488,0.36280988507162837 l -15.638942819834424 51.90630140629741" fill="#40ffc7" stroke="none" /><path d="M 106.40334571778207 80.00007090966166 l 17.683582876361786 -55.23212695016849 a78.99393891420624,78.99393891420624 0 0,0 1.2914274365704839,0.4257633215139237 l -18.631693135174686 54.91954990439533" fill="#46fff4" stroke="none" /><path d="M 106.74666289553966 80.11325718540242 l 11.937823775121933 -35.18842350027461 a58.158266710390905,58.158266710390905 0 0,0 0.9452601447973452,0.3297827038503122 l -12.541765923982553 34.97771994325209" fill="#73ff27" stroke="none" /><path d="M 108.09893153111575 80.62456947434976 l 14.29788869130065 -34.20546870132773 a58.073490665249395,58.073490665249395 0 0,0 0.9189887709464231,0.39346303165238783 l -14.88456122003739 33.95428614171255" fill="#74ff27" stroke="none" /><path d="M 108.43124777332544 80.76684994638697 l 24.818089490058497 -56.6144006248347 a82.81527257924077,82.81527257924077 0 0,0 1.3006646552705399,0.5835703173552106 l -25.78893626379582 56.17880997696296" fill="#4bdfff" stroke="none" /><path d="M 109.08828744355905 81.06846463323043 l 24.05411208685786 -50.10638984700262 a76.58102744450599,76.58102744450599 0 0,0 1.1834639908383275,0.5807206405766854 l -24.91304734470662 49.6849140462911" fill="#42ffd8" stroke="none" /><path d="M 109.73455568895987 81.39251694778311 l 28.319297878849074 -54.13198836891861 a82.09218278244546,82.09218278244546 0 0,0 1.2464523391183822,0.6658116721788992 l -29.246895264495766 53.63649797023796" fill="#4ae7ff" stroke="none" /><path d="M 110.05341064243156 81.56283822128135 l 22.64652019535943 -41.53193094536459 a68.30503318896791,68.30503318896791 0 0,0 1.0274245037871483,0.57176062398864 l -23.35806878821861 41.135954923815774" fill="#36ff6e" stroke="none" /><line stroke="#e1ed5e" stroke-width="0.3" x1="143.23703022742887" x2="145.7803849466894" y1="26.81831364943548" y2="22.513508569990506" /><path d="M 143.74570117128098 25.957352633546492 a86.0,86.0 0 0,1 28.547481713284135,27.462654790039103" fill="none" id="id14" stroke="none" /><text fill="#e1ed5e" style="font-size:6.75px; font-family:Arial;" text-anchor="middle"><textPath startOffset="19.985693538727396" xlink:href="#id14">February</textPath></text><path d="M 110.68208982089419 81.91981866633111 l 19.839530045830692 -33.57978699090963 a60.00267999502448,60.00267999502448 0 0,0 0.8847193264316036,0.5330334949829322 l -20.414611438479934 33.233306886468085" fill="#5dff2a" stroke="none" /><path d="M 111.2981086023043 82.29822771554956 l 33.835684441715976 -53.013438103579595 a83.89100222767519,83.89100222767519 0 0,0 1.210559043570952,0.7873812758290577 l -34.743210511071204 52.42315790359101" fill="#4dd3ff" stroke="none" /><path d="M 111.90073688211348 82.69761687909136 l 20.322883784629376 -29.547272983730725 a56.86169190234414,56.86169190234414 0 0,0 0.8016655391844082,0.5616179412682553 l -20.828480463397437 29.193070199698536" fill="#84ff25" stroke="none" /><path d="M 112.48926042617603 83.11751280151076 l 6.347232722327968 -8.57993760430724 a31.672520439202557,31.672520439202557 0 0,0 0.43550295699933184,0.3280117982887395 l -6.493981833085683 8.469409216512652" fill="#ff0000" stroke="none" /><path d="M 112.77801427241765 83.33499621200491 l 9.913715007187076 -12.929403162782483 a37.292673549466826,37.292673549466826 0 0,0 0.50605704250786,0.3949855486211846 l -10.134804604854367 12.756839224938075" fill="#ff5e08" stroke="none" /><path d="M 113.06298171725822 83.55741782278167 l 24.759145958802726 -31.164729529362276 a60.80270939581378,60.80270939581378 0 0,0 0.8138778556778159,0.6580992912137851 l -25.29192721304503 30.733924140884362" fill="#53ff2b" stroke="none" /><path d="M 113.34407831869373 83.78471172551755 l 36.59681343830274 -44.47125276522086 a78.59356801194123,78.59356801194123 0 0,0 1.0372197627619295,0.8686417224696048 l -37.356890738023786 43.834709885357434" fill="#45fff0" stroke="none" /><path d="M 113.6212207817346 84.01681056812373 l 8.457562356860738 -9.924134073421618 a34.039125665758256,34.039125665758256 0 0,0 0.4426807765695558,0.3838884071923092 l -8.627136932077057 9.777080672809637" fill="#ff2803" stroke="none" /><path d="M 113.89432698308785 84.25364557470407 l 24.650713395277602 -27.936500301950414 a58.257290830346136,58.257290830346136 0 0,0 0.7462176726565711,0.6699615943782815 l -25.127942055530163 27.508039698802836" fill="#72ff27" stroke="none" /><path d="M 114.16331599549186 84.49514656593476 l 37.03654360523216 -40.5446140216226 a75.91421754322481,75.91421754322481 0 0,0 0.957213633968041,0.8896257518628427 l -37.72896512299505 39.90108368368512" fill="#41ffd0" stroke="none" /><path d="M 114.94478906791727 85.2469230424477 l 35.15750939254997 -34.70650802410033 a70.40234980154466,70.40234980154466 0 0,0 0.8439422554439581,0.8697566788536185 l -35.74971591169704 34.0961871496966" fill="#39ff8a" stroke="none" /><path d="M 115.4437574822437 85.77008943001954 l 26.858442911375487 -24.747425690750575 a57.521377766218485,57.521377766218485 0 0,0 0.6646632435952519,0.7339377545177894 l -27.280449795586776 24.281435148963237" fill="#7bff26" stroke="none" /><path d="M 115.68641384162765 86.03803664274999 l 27.605058678358805 -24.570358887203124 a57.955944048036365,57.955944048036365 0 0,0 0.6568564874980779,0.7509005143353835 l -28.02390702943473 24.09154281666479" fill="#76ff27" stroke="none" /><path d="M 116.15771136456269 86.58626213691792 l 27.64075325887857 -22.946679154443686 a56.924383431524426,56.924383431524426 0 0,0 0.619395592939239,0.7593057587842061 l -28.031647343894218 22.467489226051377" fill="#83ff25" stroke="none" /><path d="M 116.38621287248628 86.86637796730983 l 23.944775801420736 -19.191843623696894 a51.686791130008025,51.686791130008025 0 0,0 0.5504542820675423,0.6990210387182338 l -24.271584164082242 18.77683019102562" fill="#c8ff1d" stroke="none" /><path d="M 116.82858285166822 87.43820079747576 l 23.937528263333185 -17.868315240753162 a50.871088846923655,50.871088846923655 0 0,0 0.5177644585108886,0.7062301395334502 l -24.2415553343577 17.45362265754822" fill="#d3ff1c" stroke="none" /><path d="M 117.65298651832404 88.62581576622439 l 30.00706282067766 -19.334171047068214 a56.69641423450521,56.69641423450521 0 0,0 0.521532505805447,0.8249391778820396 l -30.335422922729062 18.814784221471967" fill="#86ff25" stroke="none" /><line stroke="#e1ed5e" stroke-width="0.3" x1="172.23445277983987" x2="176.4835382374775" y1="55.19839476539836" y2="52.563006222186495" /><path d="M 173.08426987136738 54.67131705675599 a86.0,86.0 0 0,1 12.851231095245387,41.99856678651699" fill="none" id="id15" stroke="none" /><text fill="#e1ed5e" style="font-size:6.75px; font-family:Arial;" text-anchor="middle"><textPath startOffset="22.20632615414155" xlink:href="#id15">March</textPath></text><path d="M 119.196687751892 91.48605970444005 l 52.59644543150943 -23.327096942461484 a78.53728811642712,78.53728811642712 0 0,0 0.5374541869567908,1.2405183642889197 l -52.990190328308906 22.418279433585962" fill="#45ffef" stroke="none" /><path d="M 119.34039704204932 91.81776055985345 l 34.62848084365523 -14.65008815978745 a58.59995702961563,58.59995702961563 0 0,0 0.3850249152136992,0.9323683720923001 l -34.87552744575513 14.051845217241846" fill="#6eff28" stroke="none" /><path d="M 119.47837535516314 92.15188598940014 l 58.435126065489385 -23.54434203179955 a84.0,84.0 0 0,0 0.5288258004731983,1.3458039804168624 l -58.83174541584429 22.534989046486903" fill="#4dd2ff" stroke="none" /><path d="M 119.7369772167798 92.82701384747503 l 17.884536262619335 -6.499755740054993 a40.02901631743806,40.02901631743806 0 0,0 0.22977974263242953,0.6496182748947936 l -17.993769086061576 6.190939838733584" fill="#ff8a0c" stroke="none" /><path d="M 119.97218684219823 93.5106431181261 l 14.792648287145537 -4.8064227879395505 a36.55391087037644,36.55391087037644 0 0,0 0.18928749304662837,0.6000930804297994 l -14.873191263960372 4.5510795410833325" fill="#ff5207" stroke="none" /><path d="M 120.08093135843002 93.85539295169968 l 43.51530763336512 -13.315341864394316 a66.50692614747888,66.50692614747888 0 0,0 0.3255485623423029,1.0975879133588096 l -43.73806209281913 12.564324564288977" fill="#33ff55" stroke="none" /><path d="M 120.18372546131832 94.20196356495316 l 34.53895028253977 -9.921760606099578 a56.93578189137539,56.93578189137539 0 0,0 0.26248271024920167,0.9442899649414275 l -34.70461976335533 9.3257593377392" fill="#83ff25" stroke="none" /><path d="M 120.37134235888165 94.90015583598534 l 34.9215113841781 -8.742392273110314 a56.999185824296354,56.999185824296354 0 0,0 0.2300791128447047,0.9538264610498841 l -35.06682329728363 8.139980580401025" fill="#82ff25" stroke="none" /><line stroke="#e1ed5e" stroke-width="0.3" x1="184.98032266829074" x2="189.97916517819016" y1="98.17113171792111" y2="98.06355123074" /><path d="M 185.9800911702706 98.14961562048488 a86.0,86.0 0 0,1 -9.607161424134198,41.387399972396054" fill="none" id="id16" stroke="none" /><text fill="#e1ed5e" style="font-size:6.75px; font-family:Arial;" text-anchor="middle"><textPath startOffset="21.466115282336823" xlink:href="#id16">April</textPath></text><line stroke="#e1ed5e" stroke-width="0.3" x1="174.80103733775053" x2="179.2010983576182" y1="140.37084112569926" y2="142.7455964860345" /><path d="M 175.68104954172406 140.8457921977663 a86.0,86.0 0 0,1 -30.038265399797805,32.042727171017184" fill="none" id="id17" stroke="none" /><text fill="#e1ed5e" style="font-size:6.75px; font-family:Arial;" text-anchor="middle"><textPath startOffset="22.206326154141568" xlink:href="#id17">May</textPath></text><line stroke="#e1ed5e" stroke-width="0.3" x1="143.8653032363475" x2="146.44561519142675" y1="172.8068346515853" y2="177.08958963109032" /><path d="M 144.38136562736335 173.6633856474863 a86.0,86.0 0 0,1 -40.68145358897372,12.25698825130547" fill="none" id="id18" stroke="none" /><text fill="#e1ed5e" style="font-size:6.75px; font-family:Arial;" text-anchor="middle"><textPath startOffset="21.466115282336833" xlink:href="#id18">June</textPath></text><line stroke="#e1ed5e" stroke-width="0.3" x1="102.19456741930631" x2="102.32365962044197" y1="184.97166512339345" y2="189.96999836594603" /><path d="M 102.22038585953345 185.97133177190398 a86.0,86.0 0 0,1 -42.740103519485714,-10.115201625700543" fill="none" id="id19" stroke="none" /><text fill="#e1ed5e" style="font-size:6.75px; font-family:Arial;" text-anchor="middle"><textPath startOffset="22.20632615414155" xlink:href="#id19">July</textPath></text><line stroke="#e1ed5e" stroke-width="0.3" x1="58.666819895761336" x2="56.23545636021788" y1="174.27360380694188" y2="178.64263932499728" /><path d="M 58.180547188652646 175.14741091055294 a86.0,86.0 0 0,1 -31.652253787137756,-30.449443065178592" fill="none" id="id20" stroke="none" /><text fill="#e1ed5e" style="font-size:6.75px; font-family:Arial;" text-anchor="middle"><textPath startOffset="22.20632615414155" xlink:href="#id20">August</textPath></text><line stroke="#e1ed5e" stroke-width="0.3" x1="26.63291911575756" x2="22.317208475507996" y1="142.92168965132927" y2="145.44649492493687" /><path d="M 25.769776987707644 143.4266507060508 a86.0,86.0 0 0,1 -11.730757126820373,-40.83630448921669" fill="none" id="id21" stroke="none" /><text fill="#e1ed5e" style="font-size:6.75px; font-family:Arial;" text-anchor="middle"><textPath startOffset="21.46611528233685" xlink:href="#id21">September</textPath></text><line stroke="#e1ed5e" stroke-width="0.3" x1="15.007084014347285" x2="10.007500721073583" y1="101.09737516637583" y2="101.16192664675087" /><path d="M 14.007167355692545 101.11028546245083 a86.0,86.0 0 0,1 10.666146001902534,-42.60595125391555" fill="none" id="id22" stroke="none" /><text fill="#e1ed5e" style="font-size:6.75px; font-family:Arial;" text-anchor="middle"><textPath startOffset="22.20632615414155" xlink:href="#id22">October</textPath></text><line stroke="#e1ed5e" stroke-width="0.3" x1="26.266209847984243" x2="21.928928074336255" y1="57.711370442889674" y2="55.22380399835377" /><path d="M 25.398753493254645 57.213857153982495 a86.0,86.0 0 0,1 29.58750427330803,-30.492523968695096" fill="none" id="id23" stroke="none" /><text fill="#e1ed5e" style="font-size:6.75px; font-family:Arial;" text-anchor="middle"><textPath startOffset="21.46611528233685" xlink:href="#id23">November</textPath></text><line stroke="#e1ed5e" stroke-width="0.3" x1="56.762969772571076" x2="54.21961505331055" y1="26.818313649435495" y2="22.513508569990535" /><path d="M 56.25429882871897 25.957352633546506 a86.0,86.0 0 0,1 42.265352541879196,-11.944610805530505" fill="none" id="id24" stroke="none" /><text fill="#e1ed5e" style="font-size:6.75px; font-family:Arial;" text-anchor="middle"><textPath startOffset="22.20632615414155" xlink:href="#id24">December</textPath></text></svg>