<?xml version="1.0" encoding="utf-8" ?>
<svg baseProfile="full" height="200mm" version="1.1" viewBox="0,0,200,200" width="200mm" xmlns="http://www.w3.org/2000/svg" xmlns:ev="http://www.w3.org/2001/xml-events" xmlns:xlink="http://www.w3.org/1999/xlink"><defs /><rect fill="#1a1a1a" height="200" width="200" x="0" y="0" /><text alignment-baseline="middle" fill="#e1ed5e" style="dominant-baseline: central; font-size:9.0px; font-family:Arial;" text-anchor="middle" x="100.0" y="100.0">2025</text><line stroke="#e1ed5e" stroke-width="0.3" x1="100.0" x2="100.0" y1="15.0" y2="10.0" /><path d="M 100.0 14.0 a86.0,86.0 0 0,1 42.46469731375804,11.215312516191453" fill="none" id="id13" stroke="none" /><text fill="#e1ed5e" style="font-size:6.75px; font-family:Arial;" text-anchor="middle"><textPath startOffset="22.20632615414155" xlink:href="#id13">January</textPath></text><path d="M 100.0 79.0 l 0.0 -36.58748415350927 a57.58748415350927,57.58748415350927 0 0,0 0.9912738748528412,0.008532207197189681 l -0.6297933955803128 36.58206332292064" fill="#ff0801" stroke="none" /><path d="M 100.72285384407766 79.0124445844662 l 1.264298614643334 -36.708025355342535 a57.72979140255849,57.72979140255849 0 0,0 0.992840162346931,0.04275378588541807 l -1.8959796093795964 36.680823842932924" fill="#ff0d01" stroke="none" /><path d="M 101.08401301168833 79.027996857942 l 1.8938807942826315 -36.640218835120706 a57.68913218854443,57.68913218854443 0 0,0 0.9912584887207222,0.059795419049146446 l -2.5243013318429655 36.60219014669126" fill="#ff0b01" stroke="none" /><path d="M 102.16513564639614 79.11191278185805 l 3.7521698446453735 -36.1989564499993 a57.39290077215627,57.39290077215627 0 0,0 0.981782901881949,0.11031474843926217 l -4.374719450037047 36.12900574808944" fill="#ff0100" stroke="none" /><path d="M 102.88285421437855 79.19881850522331 l 4.997567487920054 -36.05985617660837 a57.404517690446006,57.404517690446006 0 0,0 0.9776017233159748,0.1440730817317019 l -5.617538191664684 35.968488610715696" fill="#ff0200" stroke="none" /><path d="M 103.2404852339499 79.25152402106235 l 5.651261346744284 -36.18441432016575 a57.623060965771586,57.623060965771586 0 0,0 0.9786887094937974,0.1614920227949285 l -6.273279262376956 36.0817760344312" fill="#ff0901" stroke="none" /><path d="M 103.59715602781102 79.31037775812273 l 6.278627114486988 -36.1125350671522 a57.65428143367523,57.65428143367523 0 0,0 0.9762925603391119,0.1784112250969732 l -6.899314795929001 35.99910836070449" fill="#ff0a01" stroke="none" /><path d="M 103.95276090670814 79.375362276772 l 8.314054253330497 -43.38090793581765 a65.1704275671315,65.1704275671315 0 0,0 1.0999327923419548,0.2206361705133283 l -9.059553455139577 43.23136780922712" fill="#fff417" stroke="none" /><path d="M 104.307194497241 79.44645832069477 l 7.456455076801463 -35.58152767400571 a57.354419730321546,57.354419730321546 0 0,0 0.9645300299864527,0.21080890608212877 l -8.067827830941443 35.447905269827714" fill="#ff0000" stroke="none" /><path d="M 104.66035177308747 79.52364482259891 l 8.788391152224623 -38.61387024689366 a60.60134839230149,60.60134839230149 0 0,0 1.0151485191687344,0.24025285635402366 l -9.451763358355882 38.456871478398774" fill="#ff6b09" stroke="none" /><path d="M 105.36241919743992 79.69619591428918 l 11.48708431375993 -43.49371073674559 a65.98506396219892,65.98506396219892 0 0,0 1.0956729087298673,0.29948879523978333 l -12.234055111713507 43.28953540067951" fill="#f3ff19" stroke="none" /><path d="M 105.71112130821622 79.79150937346287 l 15.025705442089015 -53.1676375262292 a76.2500633859629,76.2500633859629 0 0,0 1.2599770425779937,0.367821849573944 l -15.938672702390436 52.90111734773655" fill="#37ff74" stroke="none" /><path d="M 106.40334571778207 80.00007090966166 l 18.022499533309922 -56.290684367687575 a80.10542814336753,80.10542814336753 0 0,0 1.309598548249703,0.43175405134129224 l -18.98878090380204 55.97211659208705" fill="#42ffd5" stroke="none" /><path d="M 106.74666289553966 80.11325718540242 l 12.166619452637526 -35.862831109828115 a58.87042756713149,58.87042756713149 0 0,0 0.9568350646262633,0.33382096609911316 l -12.782136521327063 35.64808929055679" fill="#ff3304" stroke="none" /><path d="M 108.09893153111575 80.62456947434976 l 14.571916453126548 -34.86103738232702 a58.78402673735162,58.78402673735162 0 0,0 0.9302327079671583,0.3982770986875387 l -15.16983291888402 34.60504075567669" fill="#ff3004" stroke="none" /><path d="M 108.43124777332544 80.76684994638697 l 25.2937433199763 -57.69945016083909 a84.0,84.0 0 0,0 1.3192715261328791,0.591918677933875 l -26.283196964575957 57.255511152388685" fill="#4dd2ff" stroke="none" /><line stroke="#e1ed5e" stroke-width="0.3" x1="143.23703022742887" x2="145.7803849466894" y1="26.81831364943548" y2="22.513508569990506" /><path d="M 143.74570117128098 25.957352633546492 a86.0,86.0 0 0,1 28.547481713284135,27.462654790039103" fill="none" id="id14" stroke="none" /><text fill="#e1ed5e" style="font-size:6.75px; font-family:Arial;" text-anchor="middle"><textPath startOffset="19.985693538727396" xlink:href="#id14">February</textPath></text><line stroke="#e1ed5e" stroke-width="0.3" x1="172.23445277983987" x2="176.4835382374775" y1="55.19839476539836" y2="52.563006222186495" /><path d="M 173.08426987136738 54.67131705675599 a86.0,86.0 0 0,1 12.851231095245387,41.99856678651699" fill="none" id="id15" stroke="none" /><text fill="#e1ed5e" style="font-size:6.75px; font-family:Arial;" text-anchor="middle"><textPath startOffset="22.20632615414155" xlink:href="#id15">March</textPath></text><line stroke="#e1ed5e" stroke-width="0.3" x1="184.98032266829074" x2="189.97916517819016" y1="98.17113171792111" y2="98.06355123074" /><path d="M 185.9800911702706 98.14961562048488 a86.0,86.0 0 0,1 -9.607161424134198,41.387399972396054" fill="none" id="id16" stroke="none" /><text fill="#e1ed5e" style="font-size:6.75px; font-family:Arial;" text-anchor="middle"><textPath startOffset="21.466115282336823" xlink:href="#id16">April</textPath></text><line stroke="#e1ed5e" stroke-width="0.3" x1="174.80103733775053" x2="179.2010983576182" y1="140.37084112569926" y2="142.7455964860345" /><path d="M 175.68104954172406 140.8457921977663 a86.0,86.0 0 0,1 -30.038265399797805,32.042727171017184" fill="none" id="id17" stroke="none" /><text fill="#e1ed5e" style="font-size:6.75px; font-family:Arial;" text-anchor="middle"><textPath startOffset="22.206326154141568" xlink:href="#id17">May</textPath></text><line stroke="#e1ed5e" stroke-width="0.3" x1="143.8653032363475" x2="146.44561519142675" y1="172.8068346515853" y2="177.08958963109032" /><path d="M 144.38136562736335 173.6633856474863 a86.0,86.0 0 0,1 -40.68145358897372,12.25698825130547" fill="none" id="id18" stroke="none" /><text fill="#e1ed5e" style="font-size:6.75px; font-family:Arial;" text-anchor="middle"><textPath startOffset="21.466115282336833" xlink:href="#id18">June</textPath></text><line stroke="#e1ed5e" stroke-width="0.3" x1="102.19456741930631" x2="102.32365962044197" y1="184.97166512339345" y2="189.96999836594603" /><path d="M 102.22038585953345 185.97133177190398 a86.0,86.0 0 0,1 -42.740103519485714,-10.115201625700543" fill="none" id="id19" stroke="none" /><text fill="#e1ed5e" style="font-size:6.75px; font-family:Arial;" text-anchor="middle"><textPath startOffset="22.20632615414155" xlink:href="#id19">July</textPath></text><line stroke="#e1ed5e" stroke-width="0.3" x1="58.666819895761336" x2="56.23545636021788" y1="174.27360380694188" y2="178.64263932499728" /><path d="M 58.180547188652646 175.14741091055294 a86.0,86.0 0 0,1 -31.652253787137756,-30.449443065178592" fill="none" id="id20" stroke="none" /><text fill="#e1ed5e" style="font-size:6.75px; font-family:Arial;" text-anchor="middle"><textPath startOffset="22.20632615414155" xlink:href="#id20">August</textPath></text><line stroke="#e1ed5e" stroke-width="0.3" x1="26.63291911575756" x2="22.317208475507996" y1="142.92168965132927" y2="145.44649492493687" /><path d="M 25.769776987707644 143.4266507060508 a86.0,86.0 0 0,1 -11.730757126820373,-40.83630448921669" fill="none" id="id21" stroke="none" /><text fill="#e1ed5e" style="font-size:6.75px; font-family:Arial;" text-anchor="middle"><textPath startOffset="21.46611528233685" xlink:href="#id21">September</textPath></text><line stroke="#e1ed5e" stroke-width="0.3" x1="15.007084014347285" x2="10.007500721073583" y1="101.09737516637583" y2="101.16192664675087" /><path d="M 14.007167355692545 101.11028546245083 a86.0,86.0 0 0,1 10.666146001902534,-42.60595125391555" fill="none" id="id22" stroke="none" /><text fill="#e1ed5e" style="font-size:6.75px; font-family:Arial;" text-anchor="middle"><textPath startOffset="22.20632615414155" xlink:href="#id22">October</textPath></text><line stroke="#e1ed5e" stroke-width="0.3" x1="26.266209847984243" x2="21.928928074336255" y1="57.711370442889674" y2="55.22380399835377" /><path d="M 25.398753493254645 57.213857153982495 a86.0,86.0 0 0,1 29.58750427330803,-30.492523968695096" fill="none" id="id23" stroke="none" /><text fill="#e1ed5e" style="font-size:6.75px; font-family:Arial;" text-anchor="middle"><textPath startOffset="21.46611528233685" xlink:href="#id23">November</textPath></text><line stroke="#e1ed5e" stroke-width="0.3" x1="56.762969772571076" x2="54.21961505331055" y1="26.818313649435495" y2="22.513508569990535" /><path d="M 56.25429882871897 25.957352633546506 a86.0,86.0 0 0,1 42.265352541879196,-11.944610805530505" fill="none" id="id24" stroke="none" /><text fill="#e1ed5e" style="font-size:6.75px; font-family:Arial;" text-anchor="middle"><textPath startOffset="22.20632615414155" xlink:href="#id24">December</textPath></text></svg>