<?xml version="1.0" encoding="utf-8" ?>
<svg baseProfile="full" height="200mm" version="1.1" viewBox="0,0,200,200" width="200mm" xmlns="http://www.w3.org/2000/svg" xmlns:ev="http://www.w3.org/2001/xml-events" xmlns:xlink="http://www.w3.org/1999/xlink"><defs /><rect fill="#1a1a1a" height="200" width="200" x="0" y="0" /><text alignment-baseline="middle" fill="#e1ed5e" style="dominant-baseline: central; font-size:9.0px; font-family:Arial;" text-anchor="middle" x="100.0" y="100.0">2024</text><line stroke="#e1ed5e" stroke-width="0.3" x1="100.0" x2="100.0" y1="15.0" y2="10.0" /><path d="M 100.0 14.0 a86.0,86.0 0 0,1 42.35913384403234,11.155469271406648" fill="none" id="id1" stroke="none" /><text fill="#e1ed5e" style="font-size:6.75px; font-family:Arial;" text-anchor="middle"><textPath startOffset="22.145653131862478" xlink:href="#id1">January</textPath></text><line stroke="#e1ed5e" stroke-width="0.3" x1="143.13028292997686" x2="145.6673583964461" y1="26.7553504044142" y2="22.446841604673864" /><path d="M 143.63769802327073 25.89364864446614 a86.0,86.0 0 0,1 29.32050498858742,28.57503671076993" fill="none" id="id2" stroke="none" /><text fill="#e1ed5e" style="font-size:6.75px; font-family:Arial;" text-anchor="middle"><textPath startOffset="20.669276256404974" xlink:href="#id2">February</textPath></text><line stroke="#e1ed5e" stroke-width="0.3" x1="172.87174338648825" x2="177.1583165268699" y1="56.24261187166439" y2="53.66864786411523" /><path d="M 173.72905801456457 55.72781907015455 a86.0,86.0 0 0,1 12.242430191666344,42.057860355516425" fill="none" id="id3" stroke="none" /><text fill="#e1ed5e" style="font-size:6.75px; font-family:Arial;" text-anchor="middle"><textPath startOffset="22.145653131862474" xlink:href="#id3">March</textPath></text><path d="M 118.8641267826498 90.77261029715802 l 56.59238034794944 -27.682169108525915 a84.0,84.0 0 0,0 0.6224829681603521,1.300749991739586 l -57.0592425740697 26.706606614721228" fill="#4dd2ff" stroke="none" /><path d="M 119.16976305983485 91.42560881287824 l 5.254019912586399 -2.3500562784645695 a26.755648508535344,26.755648508535344 0 0,0 0.18393376710931836,0.4208764547673547 l -5.2935875617126875 2.2595177539213656" fill="#ff3705" stroke="none" /><path d="M 120.7213421655516 96.59031103205396 l 4.951182308166088 -0.8147151646628937 a26.01776514478593,26.01776514478593 0 0,0 0.06873460895856076,0.44132549639547497 l -4.964438409262915 0.7296014863359774" fill="#ff2c04" stroke="none" /><path d="M 120.93736805541906 98.37931529534042 l 27.148459248180938 -2.1014624446654238 a48.22967102181883,48.22967102181883 0 0,0 0.056810048351990355,0.8260056349462046 l -27.180533257697995 1.635113385564885" fill="#b2ff20" stroke="none" /><line stroke="#e1ed5e" stroke-width="0.3" x1="184.99686870605535" x2="189.99668451229388" y1="99.2704041080226" y2="99.22748670261217" /><path d="M 185.99683186730306 99.26182062694052 a86.0,86.0 0 0,1 -10.086455211305974,41.156179273409016" fill="none" id="id4" stroke="none" /><text fill="#e1ed5e" style="font-size:6.75px; font-family:Arial;" text-anchor="middle"><textPath startOffset="21.40746469413373" xlink:href="#id4">April</textPath></text><path d="M 120.99922638620191 99.81974689727618 l 5.615032405791699 -0.04819829999565316 a26.615239264200003,26.615239264200003 0 0,0 0.0,0.4569028054389594 l -5.615032405791699 -0.04819829999565248" fill="#ff3505" stroke="none" /><path d="M 120.99922638620191 100.18025310272382 l 11.827856061066514 0.10152791890366672 a32.82829180057817,32.82829180057817 0 0,0 -0.009674291871750125,0.5634790010945553 l -11.824370337596095 -0.304553835967293" fill="#ff8c0c" stroke="none" /><path d="M 120.86939407059847 102.33845913500097 l 2.440981093427935 0.2735170229179321 a23.456257368497553,23.456257368497553 0 0,0 -0.0482728813153741,0.3997687060903411 l -2.4359261258528973 -0.3153794059316818" fill="#ff0701" stroke="none" /><path d="M 120.77682067341334 103.0534771498775 l 15.002144755156385 2.2047986517803775 a36.16329398084594,36.16329398084594 0 0,0 -0.09553740902011926,0.613418699822122 l -14.962085853997998 -2.4620055335339504" fill="#ffb811" stroke="none" /><path d="M 120.592083275326 104.11899336999214 l 13.179434360590626 2.636255983704489 a34.44051099016457,34.44051099016457 0 0,0 -0.12093914860920804,0.5787376065596734 l -13.132237501157054 -2.8621100415495717" fill="#ffa10e" stroke="none" /><path d="M 119.4528033332814 107.91128576633889 l 14.47014113160109 5.8848804262310885 a36.62103716145287,36.62103716145287 0 0,0 -0.24182816193154552,0.5802995541844943 l -14.36698712513306 -6.13241248985686" fill="#ffbe11" stroke="none" /><path d="M 118.5362547648365 109.86951160357373 l 14.933122247360894 7.951046485264104 a37.917957331352255,37.917957331352255 0 0,0 -0.3108453660799735,0.5719204623439075 l -14.79443153166558 -8.206221781082615" fill="#ffcf13" stroke="none" /><line stroke="#e1ed5e" stroke-width="0.3" x1="174.33088141563837" x2="178.70328620479359" y1="141.23008692659167" y2="143.65538615756765" /><path d="M 175.20536237346943 141.71514677278685 a86.0,86.0 0 0,1 -30.301960400862466,31.631185727798858" fill="none" id="id5" stroke="none" /><text fill="#e1ed5e" style="font-size:6.75px; font-family:Arial;" text-anchor="middle"><textPath startOffset="22.145653131862474" xlink:href="#id5">May</textPath></text><path d="M 118.36410011445183 110.18625677009912 l 7.025053990605722 3.8966790273488656 a29.033398472197547,29.033398472197547 0 0,0 -0.2454934699381702,0.43376343865078354 l -6.957127155646173 -4.016699236098772" fill="#ff5708" stroke="none" /><path d="M 118.18653347947321 110.5 l 1.7322326310842635 1.0001049758555527 a23.000209951711106,23.000209951711106 0 0,0 -0.20034967012871244,0.3402375405001015 l -1.7148092508257857 -1.0296936846492037" fill="#ff0000" stroke="none" /><path d="M 117.81537515405839 111.11811171558189 l 3.2880716300421393 2.051999881872605 a24.875837788077973,24.875837788077973 0 0,0 -0.22919211990367822,0.36032808028785107 l -3.252361818512571 -2.1081416368391284" fill="#ff1c02" stroke="none" /><path d="M 116.79662413953412 112.60449989151573 l 6.254528721564056 4.69351495500112 a28.81973223081768,28.81973223081768 0 0,0 -0.30034006723299383,0.39315478905367157 l -6.173036676976758 -4.800190657295669" fill="#ff5407" stroke="none" /><path d="M 115.89218393027572 113.72728997021213 l 15.66871787286803 13.534265312179349 a41.7047109933946,41.7047109933946 0 0,0 -0.47263141891584104,0.5377677949733164 l -15.434075389993604 -13.801245384963957" fill="#fffe18" stroke="none" /><line stroke="#e1ed5e" stroke-width="0.3" x1="143.1302829299769" x2="145.66735839644613" y1="173.24464959558577" y2="177.55315839532614" /><path d="M 143.63769802327073 174.10635135553383 a86.0,86.0 0 0,1 -40.68552437913181,11.842963189579606" fill="none" id="id6" stroke="none" /><text fill="#e1ed5e" style="font-size:6.75px; font-family:Arial;" text-anchor="middle"><textPath startOffset="21.407464694133747" xlink:href="#id6">June</textPath></text><path d="M 101.80034050326958 120.92268563240118 l 0.4450719843190062 5.172411104890404 a26.191524410923947,26.191524410923947 0 0,0 -0.4482879022565402,0.03470031880549839 l -0.3562150872872302 -5.179289190690956" fill="#ff2f04" stroke="none" /><path d="M 101.08105385017728 120.97215588758144 l 0.2675150994638108 5.189721462364575 a26.196611702385376,26.196611702385376 0 0,0 -0.4493021283210505,0.01929496661817727 l -0.17838721054193077 -5.193548997408583" fill="#ff2f04" stroke="none" /><line stroke="#e1ed5e" stroke-width="0.3" x1="101.45913802915013" x2="101.54496967792366" y1="184.9874750549273" y2="189.98673829345242" /><path d="M 101.47630435890484 185.9873277026323 a86.0,86.0 0 0,1 -42.54439059252881,-10.42667462771756" fill="none" id="id7" stroke="none" /><text fill="#e1ed5e" style="font-size:6.75px; font-family:Arial;" text-anchor="middle"><textPath startOffset="22.145653131862474" xlink:href="#id7">July</textPath></text><path d="M 98.91894614982273 120.97215588758144 l -0.230338723903627 4.468509708245642 a25.474442416705696,25.474442416705696 0 0,0 -0.43652961809182467,-0.0262605378257361 l 0.307012694127898 -4.463897192595215" fill="#ff2403" stroke="none" /><line stroke="#e1ed5e" stroke-width="0.3" x1="58.13341422392154" x2="55.67067388415222" y1="173.97424548756322" y2="178.32567169271397" /><path d="M 57.64086615596768 174.84453072859336 a86.0,86.0 0 0,1 -31.369924170532247,-30.572349798747897" fill="none" id="id8" stroke="none" /><text fill="#e1ed5e" style="font-size:6.75px; font-family:Arial;" text-anchor="middle"><textPath startOffset="22.145653131862474" xlink:href="#id8">August</textPath></text><line stroke="#e1ed5e" stroke-width="0.3" x1="26.387840678322732" x2="22.057713659400548" y1="142.50000000000003" y2="145.00000000000006" /><path d="M 25.521815274538298 143.00000000000003 a86.0,86.0 0 0,1 -11.493303480769221,-40.785679425670985" fill="none" id="id9" stroke="none" /><text fill="#e1ed5e" style="font-size:6.75px; font-family:Arial;" text-anchor="middle"><textPath startOffset="21.40746469413373" xlink:href="#id9">September</textPath></text><line stroke="#e1ed5e" stroke-width="0.3" x1="15.003131293944662" x2="10.003315487706104" y1="100.72959589197737" y2="100.7725132973878" /><path d="M 14.003168132696942 100.73817937305945 a86.0,86.0 0 0,1 10.791469493833604,-42.45332614584628" fill="none" id="id10" stroke="none" /><text fill="#e1ed5e" style="font-size:6.75px; font-family:Arial;" text-anchor="middle"><textPath startOffset="22.145653131862435" xlink:href="#id10">October</textPath></text><path d="M 79.48165901384962 95.52812308129327 l -6.843092108367316 -1.4914200749781645 a28.003730680405045,28.003730680405045 0 0,0 0.10639969257908541,-0.46881667756424905 l 6.8164815542305695 1.6086710864814218" fill="#ff4906" stroke="none" /><path d="M 79.56144815229197 95.17655741523228 l -11.991338870516921 -2.8299233227190603 a33.32074161404415,33.32074161404415 0 0,0 0.13615882172440205,-0.5555744569474033 l 11.94099252227622 3.0353536042745812" fill="#ff920d" stroke="none" /><path d="M 79.73907114497095 94.47779374421319 l -2.9528032104488475 -0.8047996455404673 a24.060514543193527,24.060514543193527 0 0,0 0.11203206635690056,-0.39756228063354604 l 2.938552652017365 0.8553698500770265" fill="#ff1001" stroke="none" /><path d="M 79.94057633289273 93.78553927170692 l -2.5785241919453235 -0.798833385929909 a23.69942990035369,23.69942990035369 0 0,0 0.12372827300201172,-0.3875770529353139 l 2.5644312031660546 0.8429794725566147" fill="#ff0a01" stroke="none" /><path d="M 80.16572619554312 93.10060997987247 l -3.917802152452569 -1.362814960504955 a25.148064406724913,25.148064406724913 0 0,0 0.14533165810114756,-0.4065185133697271 l 3.893830324307478 1.4298684302556037" fill="#ff2003" stroke="none" /><path d="M 80.41425534168474 92.42381321644754 l -8.625627023517044 -3.3365778322693593 a30.248469775028667,30.248469775028667 0 0,0 0.19148912629234455,-0.4826776882122758 l 8.567079222258569 3.4841565376952177" fill="#ff6809" stroke="none" /><path d="M 80.68587082218212 91.75594674310238 l -4.446397283333622 -1.897902601129267 a25.83450960125325,25.83450960125325 0 0,0 0.17760132672038376,-0.40638659190635684 l 4.4131620745962605 1.9739512628114908" fill="#ff2a04" stroke="none" /><path d="M 80.9802524753101 91.09779779509293 l -5.952675063889364 -2.7861524980844994 a27.572441415397535,27.572441415397535 0 0,0 0.2043258949010101,-0.4269625350395281 l 5.903969911028449 2.8879275351891147" fill="#ff4306" stroke="none" /><line stroke="#e1ed5e" stroke-width="0.3" x1="26.387840678322718" x2="22.05771365940052" y1="57.49999999999999" y2="54.99999999999999" /><path d="M 25.521815274538284 56.99999999999999 a86.0,86.0 0 0,1 29.574782752854787,-30.34633250058573" fill="none" id="id11" stroke="none" /><text fill="#e1ed5e" style="font-size:6.75px; font-family:Arial;" text-anchor="middle"><textPath startOffset="21.40746469413373" xlink:href="#id11">November</textPath></text><path d="M 81.99639281039701 89.18935116829357 l -4.166599767874334 -2.5019234444734755 a25.860059109481742,25.860059109481742 0 0,0 0.231794836451505,-0.3786194452852875 l 4.123036966967436 2.5730800058833063" fill="#ff2a04" stroke="none" /><path d="M 82.37810715431573 88.57770195909679 l -4.935556770848018 -3.1991682691584775 a26.881700285857328,26.881700285857328 0 0,0 0.25432080414559544,-0.38507411192592855 l 4.879911527781694 3.283422259423467" fill="#ff3905" stroke="none" /><path d="M 82.78059297857968 87.97951657250589 l -4.744034373591451 -3.311704433043526 a26.78560700269707,26.78560700269707 0 0,0 0.2664337561701553,-0.37477244446673075 l 4.686485518891323 3.392654104219777" fill="#ff3705" stroke="none" /><path d="M 83.8745106332314 86.54754324733833 l -4.409753650484835 -3.6787733335578623 a26.742760703499734,26.742760703499734 0 0,0 0.29710625995022816,-0.34999042715830425 l 4.345952827027493 3.753930543165723" fill="#ff3705" stroke="none" /><path d="M 88.4268655584334 82.4767994020092 l -3.222723909510356 -4.879614751165608 a26.847785009447826,26.847785009447826 0 0,0 0.3867543194015431,-0.25068947720295603 l 3.138483957851787 4.93421807007247" fill="#ff3805" stroke="none" /><path d="M 89.03521579738668 82.08984904055464 l -2.9879755612778314 -4.880633524266238 a26.72263763949676,26.72263763949676 0 0,0 0.39329009298827694,-0.2361594006972552 l 2.9037527117321202 4.931206925499417" fill="#ff3605" stroke="none" /><line stroke="#e1ed5e" stroke-width="0.3" x1="56.869717070023135" x2="54.33264160355391" y1="26.7553504044142" y2="22.446841604673864" /><path d="M 56.362301976729285 25.89364864446614 a86.0,86.0 0 0,1 42.16139366436587,-11.88097634709845" fill="none" id="id12" stroke="none" /><text fill="#e1ed5e" style="font-size:6.75px; font-family:Arial;" text-anchor="middle"><textPath startOffset="22.145653131862474" xlink:href="#id12">December</textPath></text><path d="M 89.97174638481275 81.54914285379989 l -2.79069167853634 -5.1345583663523975 a26.843941278121417,26.843941278121417 0 0,0 0.40676392109842907,-0.216578876915941 l 2.702138941651349 5.181707710990914" fill="#ff3805" stroke="none" /><path d="M 90.93487009805054 81.0573650232925 l -2.519352332284331 -5.264477412277997 a26.836253815468595,26.836253815468595 0 0,0 0.4172542737218529,-0.19529606850520512 l 2.4286093446909556 5.306949712353745" fill="#ff3805" stroke="none" /><path d="M 93.95794788825049 79.88797359093562 l -1.6316015979455882 -5.431071069900394 a26.670860317511586,26.670860317511586 0 0,0 0.4396119647654709,-0.1279646359698081 l 1.5381296207984931 5.458279400172723" fill="#ff3605" stroke="none" /><path d="M 94.6519064749342 79.69241777938228 l -1.4519778670850567 -5.513396461776371 a26.70138406628014,26.70138406628014 0 0,0 0.4442534407768815,-0.11292748740591776 l 1.3571191330827972 5.537509181017552" fill="#ff3605" stroke="none" /><path d="M 96.05791012581881 79.37332000966035 l -0.43213863331100033 -2.261131933888285 a23.30205591175568,23.30205591175568 0 0,0 0.39354427946435366,-0.07171687736810893 l 0.3932596202956082 2.268216985187755" fill="#ff0400" stroke="none" /><path d="M 96.41257539226777 79.30868818359171 l -0.9700262342585975 -5.594853544763082 a26.67832167832168,26.67832167832168 0 0,0 0.451908533417425,-0.0743613772024726 l 0.8738401977880996 5.610680920461223" fill="#ff3605" stroke="none" /><path d="M 97.84075906011542 79.11130261209362 l -0.5854780582164136 -5.663969110364982 a26.69414880731278,26.69414880731278 0 0,0 0.4562162696195201,-0.043204155059235985 l 0.48816222521187796 5.6731850209294015" fill="#ff3605" stroke="none" /><path d="M 98.9189461498227 79.02784411241856 l -0.29497254152595115 -5.722388503055417 a26.729985949385487,26.729985949385487 0 0,0 0.45845011230812777,-0.019687820411937295 l 0.19669666861700325 5.726608891893183" fill="#ff3605" stroke="none" /><path d="M 99.63950707515114 79.00309439819443 l -0.09734009552570824 -5.669572566177121 a26.670408113826127,26.670408113826127 0 0,0 0.457833020374559,-0.003929945843441227 l 1.3888494292912694e-15 5.670408113826127" fill="#ff3605" stroke="none" /></svg>