<?xml version="1.0" encoding="utf-8" ?>
<svg baseProfile="full" height="200mm" version="1.1" viewBox="0,0,200,200" width="200mm" xmlns="http://www.w3.org/2000/svg" xmlns:ev="http://www.w3.org/2001/xml-events" xmlns:xlink="http://www.w3.org/1999/xlink"><defs /><rect fill="#1a1a1a" height="200" width="200" x="0" y="0" /><text alignment-baseline="middle" fill="#e1ed5e" style="dominant-baseline: central; font-size:9.0px; font-family:Arial;" text-anchor="middle" x="100.0" y="100.0">2026</text><line stroke="#e1ed5e" stroke-width="0.3" x1="100.0" x2="100.0" y1="15.0" y2="10.0" /><path d="M 100.0 14.0 a86.0,86.0 0 0,1 42.46469731375804,11.215312516191453" fill="none" id="id25" stroke="none" /><text fill="#e1ed5e" style="font-size:6.75px; font-family:Arial;" text-anchor="middle"><textPath startOffset="22.20632615414155" xlink:href="#id25">January</textPath></text><path d="M 100.0 79.0 l 0.0 -6.057992009115306 a27.057992009115306,27.057992009115306 0 0,0 0.4657588533146307,0.004008933495796865 l -0.10427837404210229 6.0570944522280685" fill="#ff3805" stroke="none" /><path d="M 100.72285384407766 79.0124445844662 l 0.20454113543659785 -5.938708702876592 a26.942230064017032,26.942230064017032 0 0,0 0.4633539706426437,0.019952996666840687 l -0.3067359384685731 5.934307979685556" fill="#ff3705" stroke="none" /><path d="M 101.44485096284872 79.0497635885617 l 0.40904698815540624 -5.931152295698642 a26.945240701038966,26.945240701038966 0 0,0 0.46244424279274243,0.03589457351810855 l -0.5110814203104899 5.92323245999207" fill="#ff3705" stroke="none" /><path d="M 106.74666289553966 80.11325718540242 l 1.9048669282357167 -5.614864605566768 a26.92918397025532,26.92918397025532 0 0,0 0.437686433568522,0.15270020247365096 l -2.001235365867512 5.58124354992091" fill="#ff3705" stroke="none" /><path d="M 107.76421540070413 80.48803036053334 l 1.107235306141742 -2.7825531057811648 a23.994757387445468,23.994757387445468 0 0,0 0.38244915918529526,0.15601061475818181 l -1.1549683349154247 2.7630816048394036" fill="#ff0c01" stroke="none" /><path d="M 108.43124777332544 80.76684994638697 l 2.3786711976045907 -5.426164821828283 a26.924638498673183,26.924638498673183 0 0,0 0.4228679633657219,0.18972852885693028 l -2.471721279437093 5.384415962454821" fill="#ff3605" stroke="none" /><path d="M 110.36928655335952 81.73862282372117 l 2.9593414640046034 -5.2117038515133345 a26.993292829192967,26.993292829192967 0 0,0 0.40207572373770395,0.2329082113810835 l -3.048613920207636 5.1599914827422015" fill="#ff3705" stroke="none" /><line stroke="#e1ed5e" stroke-width="0.3" x1="143.23703022742887" x2="145.7803849466894" y1="26.81831364943548" y2="22.513508569990506" /><path d="M 143.74570117128098 25.957352633546492 a86.0,86.0 0 0,1 28.547481713284135,27.462654790039103" fill="none" id="id26" stroke="none" /><text fill="#e1ed5e" style="font-size:6.75px; font-family:Arial;" text-anchor="middle"><textPath startOffset="19.985693538727396" xlink:href="#id26">February</textPath></text><path d="M 113.06298171725822 83.55741782278167 l 3.6829785459434103 -4.635823482673984 a26.92074238017421,26.92074238017421 0 0,0 0.36034900910418294,0.29137717143508285 l -3.7622309536120846 4.571740213974771" fill="#ff3605" stroke="none" /><path d="M 115.19652480421416 85.50635884689758 l 4.323127202116377 -4.123169944046334 a26.974107397190448,26.974107397190448 0 0,0 0.3175657528220829,0.3387570034788101 l -4.393460276908923 4.048143523689469" fill="#ff3705" stroke="none" /><path d="M 116.82858285166822 87.43820079747576 l 2.4942575620222853 -1.8618539023561125 a24.112526423891698,24.112526423891698 0 0,0 0.24541659064470298,0.334747953834663 l -2.5259367651806146 1.8186435048499558" fill="#ff0d01" stroke="none" /><path d="M 117.65298651832404 88.62581576622439 l 2.6046366144448503 -1.6782212281180586 a24.098476784456004,24.098476784456004 0 0,0 0.22167431844116184,0.3506355365711964 l -2.633138529131968 1.6331380438326561" fill="#ff0d01" stroke="none" /><line stroke="#e1ed5e" stroke-width="0.3" x1="172.23445277983987" x2="176.4835382374775" y1="55.19839476539836" y2="52.563006222186495" /><path d="M 173.08426987136738 54.67131705675599 a86.0,86.0 0 0,1 12.851231095245387,41.99856678651699" fill="none" id="id27" stroke="none" /><text fill="#e1ed5e" style="font-size:6.75px; font-family:Arial;" text-anchor="middle"><textPath startOffset="22.20632615414155" xlink:href="#id27">March</textPath></text><path d="M 118.03404312379186 89.2402003453031 l 2.9176285322847306 -1.7407687371444143 a24.397474363202953,24.397474363202953 0 0,0 0.21207251963623386,0.3625006803755885 l -2.947160726391292 1.6902886444149303" fill="#ff1202" stroke="none" /><path d="M 118.3937258080291 89.86733742301442 l 3.3022895632600946 -1.8191521514042297 a24.77020303293804,24.77020303293804 0 0,0 0.2025163448318895,0.37523203007112366 l -3.333114007310449 1.7620391380006473" fill="#ff1702" stroke="none" /><path d="M 119.196687751892 91.48605970444005 l 3.704066966699205 -1.6427940805634387 a25.05202227103042,25.05202227103042 0 0,0 0.1714384922654826,0.39570367700648895 l -3.7317961688073686 1.578791258970347" fill="#ff1b02" stroke="none" /><path d="M 120.08093135843002 93.85539295169968 l 2.1120224399999414 -0.6462622544419021 a23.208685964228422,23.208685964228422 0 0,0 0.11360552632900417,0.3830213584490404 l -2.122833863440648 0.6098115092463318" fill="#ff0000" stroke="none" /><path d="M 120.18372546131832 94.20196356495316 l 2.2255854905070906 -0.639328244332396 a23.315593094556302,23.315593094556302 0 0,0 0.10748846969736188,0.3866932156627191 l -2.2362607307708156 0.600923725250725" fill="#ff0200" stroke="none" /><path d="M 120.28053869075195 94.5502522615342 l 2.8728875492207666 -0.7719968716300364 a23.974804538162847,23.974804538162847 0 0,0 0.10366667594084286,0.3994699906986106 l -2.8857505570319124 0.7224304553825753" fill="#ff0b01" stroke="none" /><path d="M 120.67395015179393 96.31383870115 l 4.08273399029951 -0.7279506779325168 a25.14712298166444,25.14712298166444 0 0,0 0.07231371166593974,0.4267996196968861 l -4.094659563485672 0.6575652699197928" fill="#ff1d02" stroke="none" /><path d="M 120.87857604477298 97.74499172005257 l 4.749550512051696 -0.5129792236662843 a25.777172568627158,25.777172568627158 0 0,0 0.04384927123507479,0.44155617724712387 l -4.757676908969 0.4311475157147255" fill="#ff2603" stroke="none" /><line stroke="#e1ed5e" stroke-width="0.3" x1="184.98032266829074" x2="189.97916517819016" y1="98.17113171792111" y2="98.06355123074" /><path d="M 185.9800911702706 98.14961562048488 a86.0,86.0 0 0,1 -9.607161424134198,41.387399972396054" fill="none" id="id28" stroke="none" /><text fill="#e1ed5e" style="font-size:6.75px; font-family:Arial;" text-anchor="middle"><textPath startOffset="21.466115282336823" xlink:href="#id28">April</textPath></text><path d="M 120.99513854157772 99.54816195383933 l 3.073089788365105 -0.06613620971833055 a24.073801367295843,24.073801367295843 0 0,0 0.005350107601461873,0.4143717297586621 l -3.073772903084283 0.013228221899205717" fill="#ff0d01" stroke="none" /><path d="M 120.99824983174949 100.27111621757518 l 2.971664282196661 0.03836826338137303 a23.971911965337853,23.971911965337853 0 0,0 -0.008878668027948455,0.4125568152026621 l -2.970563551483705 -0.08951489437414994" fill="#ff0b01" stroke="none" /><path d="M 120.9904718944345 100.63252640178507 l 62.97141568330351 1.8975792053552112 a84.0,84.0 0 0,0 -0.05599146859518722,1.4448910119439753 l -62.92942208185712 -2.9812474643131925" fill="#4dd2ff" stroke="none" /><path d="M 120.81339534386255 102.79330883721812 l 29.16039347131922 3.9135366159377023 a50.42183400548718,50.42183400548718 0 0,0 -0.12285147554162631,0.8592229338055124 l -29.08870794476099 -4.414905021723624" fill="#9aff22" stroke="none" /><path d="M 120.70491114924044 103.5080841355445 l 3.693827264827019 0.6258542591068675 a24.746472129353382,24.746472129353382 0 0,0 -0.07477389029340878,0.41937168649237505 l -3.6825069321944217 -0.689344696332461" fill="#ff1702" stroke="none" /><path d="M 120.5718875245553 104.21870165774334 l 3.411890462517698 0.6996804708892771 a24.48289380968801,24.48289380968801 0 0,0 -0.08821531880559168,0.41211260106791114 l -3.399341104987663 -0.7583068913733572" fill="#ff1302" stroke="none" /><path d="M 120.32669344350535 105.2749913415812 l 8.50571372423229 2.207322424278975 a29.78745914603979,29.78745914603979 0 0,0 -0.13306756397051023,0.4951939078831158 l -8.466458083920003 -2.353407265337639" fill="#ff5f08" stroke="none" /><path d="M 120.23288151984713 105.62410040840565 l 10.35552719495339 2.8785086627064533 a31.748151264598732,31.748151264598732 0 0,0 -0.15089044102194515,0.5252694201635515 l -10.304444117045346 -3.056335558374587" fill="#ff7a0b" stroke="none" /><path d="M 119.54520255179757 107.68017299344265 l 2.486426763133984 0.9770268497237125 a23.671497616227644,23.671497616227644 0 0,0 -0.15228368783641527,0.377955624515641 l -2.469240461040176 -1.019681842082167" fill="#ff0701" stroke="none" /><path d="M 119.26925614724726 108.34839909993367 l 2.720856899256697 1.1788103866193027 a23.965241338210824,23.965241338210824 0 0,0 -0.16725332260387793,0.377112088884094 l -2.700162491921546 -1.2254708119960842" fill="#ff0b01" stroke="none" /><path d="M 118.64920377521936 109.65438752849418 l 2.9904682280445942 1.548116451146035 a24.367427025082083,24.367427025082083 0 0,0 -0.19603884175717018,0.3708316094381229 l -2.963376878062531 -1.5993630756702921" fill="#ff1101" stroke="none" /><line stroke="#e1ed5e" stroke-width="0.3" x1="174.80103733775053" x2="179.2010983576182" y1="140.37084112569926" y2="142.7455964860345" /><path d="M 175.68104954172406 140.8457921977663 a86.0,86.0 0 0,1 -30.038265399797805,32.042727171017184" fill="none" id="id29" stroke="none" /><text fill="#e1ed5e" style="font-size:6.75px; font-family:Arial;" text-anchor="middle"><textPath startOffset="22.206326154141568" xlink:href="#id29">May</textPath></text><path d="M 118.12598468904814 110.60418214915192 l 2.2449422406001367 1.313350796772588 a23.600895226458373,23.600895226458373 0 0,0 -0.20815891174202425,0.34888630935786563 l -2.222002453159885 -1.3517992000165577" fill="#ff0600" stroke="none" /><path d="M 117.94076556474637 110.91462005526583 l 2.466196281394758 1.5003593517785185 a23.88672864724667,23.88672864724667 0 0,0 -0.2167269738074637,0.3494328891483997 l -2.4400046679193315 -1.542588572292192" fill="#ff0a01" stroke="none" /><path d="M 116.71984013943494 112.70617746262583 l 3.148600126256219 2.3927664157923982 a24.954619308556094,24.954619308556094 0 0,0 -0.26284722237956987,0.33976546708773875 l -3.1069460866585805 -2.4466098769933895" fill="#ff1a02" stroke="none" /><path d="M 116.498646956653 112.99209946851258 l 2.3199019301211923 1.8268405107713916 a23.95284459753227,23.95284459753227 0 0,0 -0.2578718628017003,0.32173479845663955 l -2.288112155264638 -1.8665031428062815" fill="#ff0b01" stroke="none" /><path d="M 115.07121518719521 114.62390073753431 l 2.3883394316509756 2.3174533932524244 a24.32787551910766,24.32787551910766 0 0,0 -0.29420438383615805,0.2980274875497866 l -2.348094422759282 -2.3582213747828757" fill="#ff1101" stroke="none" /><path d="M 114.81725581225074 114.88116024355365 l 2.1159673745094234 2.12509320006288 a23.998889634338315,23.998889634338315 0 0,0 -0.295243537140922,0.28895794161976174 l -2.0790738849927073 -2.161201244605214" fill="#ff0c01" stroke="none" /><path d="M 114.0293411484842 115.62618273729858 l 2.1983484982607697 2.448567968410991 a24.29062626497354,24.29062626497354 0 0,0 -0.3135314286575795,0.2766550321161854 l -2.1558747166966024 -2.486046142299465" fill="#ff1001" stroke="none" /><path d="M 113.48314897796784 116.09983520530334 l 2.0015202111714747 2.389956946452242 a24.117367055966177,24.117367055966177 0 0,0 -0.32056559838915905,0.263803663479453 l -1.9600844842376246 -2.4240557287888733" fill="#ff0d01" stroke="none" /><path d="M 112.04921762599082 117.19931262002967 l 1.7813765046730994 2.54277517004586 a24.10467515479528,24.10467515479528 0 0,0 -0.34187674015512426,0.23514593927724708 l -1.7373428798950916 -2.5730618986882012" fill="#ff0d01" stroke="none" /><line stroke="#e1ed5e" stroke-width="0.3" x1="143.8653032363475" x2="146.44561519142675" y1="172.8068346515853" y2="177.08958963109032" /><path d="M 144.38136562736335 173.6633856474863 a86.0,86.0 0 0,1 -40.68145358897372,12.25698825130547" fill="none" id="id30" stroke="none" /><text fill="#e1ed5e" style="font-size:6.75px; font-family:Arial;" text-anchor="middle"><textPath startOffset="21.466115282336833" xlink:href="#id30">June</textPath></text><line stroke="#e1ed5e" stroke-width="0.3" x1="102.19456741930631" x2="102.32365962044197" y1="184.97166512339345" y2="189.96999836594603" /><path d="M 102.22038585953345 185.97133177190398 a86.0,86.0 0 0,1 -42.740103519485714,-10.115201625700543" fill="none" id="id31" stroke="none" /><text fill="#e1ed5e" style="font-size:6.75px; font-family:Arial;" text-anchor="middle"><textPath startOffset="22.20632615414155" xlink:href="#id31">July</textPath></text><line stroke="#e1ed5e" stroke-width="0.3" x1="58.666819895761336" x2="56.23545636021788" y1="174.27360380694188" y2="178.64263932499728" /><path d="M 58.180547188652646 175.14741091055294 a86.0,86.0 0 0,1 -31.652253787137756,-30.449443065178592" fill="none" id="id32" stroke="none" /><text fill="#e1ed5e" style="font-size:6.75px; font-family:Arial;" text-anchor="middle"><textPath startOffset="22.20632615414155" xlink:href="#id32">August</textPath></text><line stroke="#e1ed5e" stroke-width="0.3" x1="26.63291911575756" x2="22.317208475507996" y1="142.92168965132927" y2="145.44649492493687" /><path d="M 25.769776987707644 143.4266507060508 a86.0,86.0 0 0,1 -11.730757126820373,-40.83630448921669" fill="none" id="id33" stroke="none" /><text fill="#e1ed5e" style="font-size:6.75px; font-family:Arial;" text-anchor="middle"><textPath startOffset="21.46611528233685" xlink:href="#id33">September</textPath></text><line stroke="#e1ed5e" stroke-width="0.3" x1="15.007084014347285" x2="10.007500721073583" y1="101.09737516637583" y2="101.16192664675087" /><path d="M 14.007167355692545 101.11028546245083 a86.0,86.0 0 0,1 10.666146001902534,-42.60595125391555" fill="none" id="id34" stroke="none" /><text fill="#e1ed5e" style="font-size:6.75px; font-family:Arial;" text-anchor="middle"><textPath startOffset="22.20632615414155" xlink:href="#id34">October</textPath></text><line stroke="#e1ed5e" stroke-width="0.3" x1="26.266209847984243" x2="21.928928074336255" y1="57.711370442889674" y2="55.22380399835377" /><path d="M 25.398753493254645 57.213857153982495 a86.0,86.0 0 0,1 29.58750427330803,-30.492523968695096" fill="none" id="id35" stroke="none" /><text fill="#e1ed5e" style="font-size:6.75px; font-family:Arial;" text-anchor="middle"><textPath startOffset="21.46611528233685" xlink:href="#id35">November</textPath></text><line stroke="#e1ed5e" stroke-width="0.3" x1="56.762969772571076" x2="54.21961505331055" y1="26.818313649435495" y2="22.513508569990535" /><path d="M 56.25429882871897 25.957352633546506 a86.0,86.0 0 0,1 42.265352541879196,-11.944610805530505" fill="none" id="id36" stroke="none" /><text fill="#e1ed5e" style="font-size:6.75px; font-family:Arial;" text-anchor="middle"><textPath startOffset="22.20632615414155" xlink:href="#id36">December</textPath></text></svg>