<?xml version="1.0" encoding="utf-8" ?>
<svg baseProfile="full" height="200mm" version="1.1" viewBox="0,0,200,200" width="200mm" xmlns="http://www.w3.org/2000/svg" xmlns:ev="http://www.w3.org/2001/xml-events" xmlns:xlink="http://www.w3.org/1999/xlink"><defs /><rect fill="#1a1a1a" height="200" width="200" x="0" y="0" /><text alignment-baseline="middle" fill="#e1ed5e" style="dominant-baseline: central; font-size:9.0px; font-family:Arial;" text-anchor="middle" x="100.0" y="100.0">2025</text><line stroke="#e1ed5e" stroke-width="0.3" x1="100.0" x2="100.0" y1="15.0" y2="10.0" /><path d="M 100.0 14.0 a86.0,86.0 0 0,1 42.46469731375804,11.215312516191453" fill="none" id="id13" stroke="none" /><text fill="#e1ed5e" style="font-size:6.75px; font-family:Arial;" text-anchor="middle"><textPath startOffset="22.20632615414155" xlink:href="#id13">January</textPath></text><path d="M 100.0 79.0 l 0.0 -19.014368452890764 a40.014368452890764,40.014368452890764 0 0,0 0.6887815755304044,0.005928560476694298 l -0.32730109625787607 19.01155126902263" fill="#ffd614" stroke="none" /><path d="M 100.72285384407766 79.0124445844662 l 0.6570509082407604 -19.07701323097376 a40.08832495822428,40.08832495822428 0 0,0 0.6894412415627745,0.02968879013986916 l -0.9853329821928665 19.062876714309695" fill="#ffd714" stroke="none" /><path d="M 101.08401301168833 79.027996857942 l 0.9842422364230634 -19.041774454959626 a40.06719452812899,40.06719452812899 0 0,0 0.6884649705845132,0.041530087141939905 l -1.3118692558471885 19.022011098437382" fill="#ffd714" stroke="none" /><path d="M 102.16513564639614 79.11191278185805 l 1.9499875865903173 -18.812452167045635 a39.91324425172044,39.91324425172044 0 0,0 0.6827698241031925,0.07671714514836753 l -2.273524114203235 18.776099068426667" fill="#ffd513" stroke="none" /><path d="M 102.88285421437855 79.19881850522331 l 2.597215735982362 -18.74016231407143 a39.919281517461954,39.919281517461954 0 0,0 0.6798273023640684,0.10018887258577763 l -2.919412018775086 18.692678957324684" fill="#ffd513" stroke="none" /><path d="M 103.2404852339499 79.25152402106235 l 2.936937806921303 -18.804894680622546 a40.03285757922414,40.03285757922414 0 0,0 0.6799310044433916,0.11219444160681483 l -3.2601980175035696 18.751553976076107" fill="#ffd614" stroke="none" /><path d="M 103.59715602781102 79.31037775812273 l 3.26297727474971 -18.767539321746707 a40.049082730904445,40.049082730904445 0 0,0 0.6781737721172942,0.12393192207677502 l -3.585546167969905 18.708591918319193" fill="#ffd714" stroke="none" /><path d="M 103.95276090670814 79.375362276772 l 4.320780577502124 -22.544883486706027 a43.955193665662456,43.955193665662456 0 0,0 0.7418665292137434,0.14881144664232154 l -4.708213516182994 22.4671680839865" fill="#f5ff19" stroke="none" /><path d="M 104.307194497241 79.44645832069477 l 3.875089732539922 -18.491576913887965 a39.89324580895169,39.89324580895169 0 0,0 0.6708852387887175,0.14662952826640735 l -4.192817695482168 18.422133887525685" fill="#ffd513" stroke="none" /><path d="M 104.66035177308747 79.52364482259891 l 4.567291557282336 -20.067473160658132 a41.58066158370418,41.58066158370418 0 0,0 0.696528182170214,0.16484571679669122 l -4.912043426415074 19.985881531720572" fill="#ffeb16" stroke="none" /><path d="M 105.36241919743992 79.69619591428918 l 5.969791546060799 -22.60350664894267 a44.37855692578596,44.37855692578596 0 0,0 0.7368998320584413,0.20142256065399544 l -6.357989267342951 22.49739754746238" fill="#f0ff19" stroke="none" /><path d="M 105.71112130821622 79.79150937346287 l 7.808798723130654 -27.631007517539253 a49.713235866629134,49.713235866629134 0 0,0 0.8214751978258519,0.2398111365784846 l -8.283264138679934 27.492498052042066" fill="#aeff20" stroke="none" /><path d="M 106.40334571778207 80.00007090966166 l 9.366220566863927 -29.254042408103896 a51.7168534345933,51.7168534345933 0 0,0 0.8454897220793861,0.2787446682520259 l -9.86839311118573 29.088484015592634" fill="#97ff23" stroke="none" /><path d="M 106.74666289553966 80.11325718540242 l 6.322943226375653 -18.63776917879881 a40.681108988218945,40.681108988218945 0 0,0 0.6611997424924969,0.23067960715835972 l -6.6428249729314235 18.52616871846824" fill="#ffdf14" stroke="none" /><path d="M 108.09893153111575 80.62456947434976 l 7.572966409550562 -18.117141005279702 a40.63620682426645,40.63620682426645 0 0,0 0.6430510261664655,0.275320889940871 l -7.883701193507343 17.98410058737604" fill="#ffde14" stroke="none" /><path d="M 108.43124777332544 80.76684994638697 l 13.145056736368797 -29.986172328336266 a53.740846774435056,53.740846774435056 0 0,0 0.8440329635688352,0.3786929877829827 l -13.659271818404413 29.755459010036752" fill="#80ff25" stroke="none" /><path d="M 109.08828744355905 81.06846463323043 l 12.740411313746767 -26.539163607146396 a50.438839742937056,50.438839742937056 0 0,0 0.7794691788209162,0.38248214084994686 l -13.195351759578116 26.315926306161618" fill="#a6ff21" stroke="none" /><path d="M 109.73455568895987 81.39251694778311 l 14.999493716094348 -28.671347109410952 a53.35785772895792,53.35785772895792 0 0,0 0.8101627258817081,0.4327608704540159 l -15.490801488504367 28.40890751245518" fill="#84ff25" stroke="none" /><path d="M 110.05341064243156 81.56283822128135 l 11.99487144119488 -21.99764767817677 a46.0554074854908,46.0554074854908 0 0,0 0.6927520853637152,0.38551578547813875 l -12.37174761563063 21.787916495138447" fill="#dbff1b" stroke="none" /><line stroke="#e1ed5e" stroke-width="0.3" x1="143.23703022742887" x2="145.7803849466894" y1="26.81831364943548" y2="22.513508569990506" /><path d="M 143.74570117128098 25.957352633546492 a86.0,86.0 0 0,1 28.547481713284135,27.462654790039103" fill="none" id="id14" stroke="none" /><text fill="#e1ed5e" style="font-size:6.75px; font-family:Arial;" text-anchor="middle"><textPath startOffset="19.985693538727396" xlink:href="#id14">February</textPath></text><path d="M 110.68208982089419 81.91981866633111 l 10.508131505441 -17.785744763612964 a41.65801405101729,41.65801405101729 0 0,0 0.6142333998206484,0.37006875068752143 l -10.812726971479286 17.60222940346683" fill="#ffec16" stroke="none" /><path d="M 111.2981086023043 82.29822771554956 l 17.92128245320382 -28.07889994677776 a54.310613728790216,54.310613728790216 0 0,0 0.7837098480817336,0.5097466855000409 l -18.401959327069832 27.76625433711819" fill="#7aff26" stroke="none" /><path d="M 111.90073688211348 82.69761687909136 l 10.764142844379469 -15.649898431210861 a39.994370010122,39.994370010122 0 0,0 0.5638613119984108,0.39502088305746635 l -11.031935295961532 15.462292705389459" fill="#ffd614" stroke="none" /><path d="M 112.48926042617603 83.11751280151076 l 3.3618516158288325 -4.544417758196141 a26.652767379599073,26.652767379599073 0 0,0 0.3664804330401113,0.2760254642296432 l -3.4395782026273265 4.485875704460651" fill="#ff1902" stroke="none" /><path d="M 112.77801427241765 83.33499621200491 l 5.250861323949468 -6.848139467393038 a29.629516719273134,29.629516719273134 0 0,0 0.4020689367310573,0.3138211826303878 l -5.367962815839955 6.756739895539425" fill="#ff4506" stroke="none" /><path d="M 113.06298171725822 83.55741782278167 l 13.11383692539546 -16.506594433917066 a42.08175464024964,42.08175464024964 0 0,0 0.5632875338960538,0.4554726783883649 l -13.396027857856005 16.27841565826457" fill="#fff116" stroke="none" /><path d="M 113.34407831869373 83.78471172551755 l 19.38373174169982 -23.554477912991366 a51.5047944754227,51.5047944754227 0 0,0 0.6797221713968139,0.5692477707816579 l -19.78631145005575 23.21732898481589" fill="#9aff23" stroke="none" /><path d="M 113.6212207817346 84.01681056812373 l 4.47960094095258 -5.256379847720118 a27.906254679180417,27.906254679180417 0 0,0 0.36292243854413936,0.3147227624083821 l -4.569417178143484 5.178492091892065" fill="#ff2c04" stroke="none" /><path d="M 113.89432698308785 84.25364557470407 l 13.056404938127516 -14.796742578908988 a40.73355773434833,40.73355773434833 0 0,0 0.5217561650792418,0.4684378366284844 l -13.309172090802749 14.569805733511206" fill="#ffe015" stroke="none" /><path d="M 114.16331599549186 84.49514656593476 l 19.616637582227774 -21.4747090779044 a50.08565969705863,50.08565969705863 0 0,0 0.6315375153673956,0.586945293089159 l -19.98338298139002 21.1338591987406" fill="#aaff21" stroke="none" /><path d="M 114.94478906791727 85.2469230424477 l 18.621395327775446 -18.382519624678906 a47.166264381928926,47.166264381928926 0 0,0 0.5654016329789857,0.5826960829915105 l -18.93506122445754 18.05925934613728" fill="#cdff1d" stroke="none" /><path d="M 115.4437574822437 85.77008943001954 l 14.225742721331487 -13.10762921192208 a40.343776764911986,40.343776764911986 0 0,0 0.4661749520749006,0.5147620254846522 l -14.449261314022424 12.860814399167877" fill="#ffdb14" stroke="none" /><path d="M 115.68641384162765 86.03803664274999 l 14.621192444453591 -13.013844669010703 a40.57394752130712,40.57394752130712 0 0,0 0.45985379223030914,0.5256923782850301 l -14.843038100261747 12.760236734522726" fill="#ffde14" stroke="none" /><path d="M 116.15771136456269 86.58626213691792 l 14.640098302871948 -12.153852516215682 a40.02757497170032,40.02757497170032 0 0,0 0.43554101140752943,0.5339217810367539 l -14.847137806355887 11.900046565570827" fill="#ffd614" stroke="none" /><path d="M 116.38621287248628 86.86637796730983 l 12.68250066450076 -10.165080330219196 a37.25345136347574,37.25345136347574 0 0,0 0.3967420181539322,0.5038220732727459 l -12.855596763248656 9.945265862993411" fill="#ffb110" stroke="none" /><path d="M 116.82858285166822 87.43820079747576 l 12.67866196050229 -9.464065222148166 a36.821409533848815,36.821409533848815 0 0,0 0.3747672322538427,0.5111820836223546 l -12.839691805269757 9.244420694854318" fill="#ffab0f" stroke="none" /><path d="M 117.65298651832404 88.62581576622439 l 15.893429001760799 -10.240464942564424 a39.90682965687009,39.90682965687009 0 0,0 0.36709039100098945,0.5806488416154825 l -16.067346989007746 9.965368453234735" fill="#ffd513" stroke="none" /><line stroke="#e1ed5e" stroke-width="0.3" x1="172.23445277983987" x2="176.4835382374775" y1="55.19839476539836" y2="52.563006222186495" /><path d="M 173.08426987136738 54.67131705675599 a86.0,86.0 0 0,1 12.851231095245387,41.99856678651699" fill="none" id="id15" stroke="none" /><text fill="#e1ed5e" style="font-size:6.75px; font-family:Arial;" text-anchor="middle"><textPath startOffset="22.20632615414155" xlink:href="#id15">March</textPath></text><path d="M 119.196687751892 91.48605970444005 l 27.858037162992243 -12.355343183296279 a51.474985475823985,51.474985475823985 0 0,0 0.3522587439804278,0.8130617483201436 l -28.066586616815353 11.873982290389533" fill="#9aff23" stroke="none" /><path d="M 119.34039704204932 91.81776055985345 l 18.341192039236024 -7.759511066730257 a40.91505303570252,40.91505303570252 0 0,0 0.2688280951822858,0.6509885557371423 l -18.472041821304508 7.442647940539811" fill="#ffe215" stroke="none" /><path d="M 119.47837535516314 92.15188598940014 l 30.950530976021177 -12.470408407240706 a54.36834508244342,54.36834508244342 0 0,0 0.3422783762931692,0.8710611335789274 l -31.160602902196047 11.935798268765993" fill="#79ff26" stroke="none" /><path d="M 119.7369772167798 92.82701384747503 l 9.472656788104048 -3.4426363886626574 a31.07883782634476,31.07883782634476 0 0,0 0.17840276914178171,0.5043686523390767 l -9.530512638055638 3.2790701098969666" fill="#ff5a08" stroke="none" /><path d="M 119.97218684219823 93.5106431181261 l 7.835018932201398 -2.5457519714299486 a29.238226433401415,29.238226433401415 0 0,0 0.15140460899885158,0.4799939855667529 l -7.877679024968455 2.4105078194367766" fill="#ff3f05" stroke="none" /><path d="M 120.08093135843002 93.85539295169968 l 23.048155579028755 -7.052554320981191 a45.10302881476734,45.10302881476734 0 0,0 0.22077739926471668,0.7443516359963263 l -23.16613887540517 6.654773298238335" fill="#e6ff1a" stroke="none" /><path d="M 120.18372546131832 94.20196356495316 l 18.293771616081646 -5.25512272586863 a40.03361223744183,40.03361223744183 0 0,0 0.1845611088857481,0.6639645059814149 l -18.381519495533755 4.939446916468263" fill="#ffd614" stroke="none" /><path d="M 120.37134235888165 94.90015583598534 l 18.4963975026624 -4.630462892305268 a40.06719452812899,40.06719452812899 0 0,0 0.1617325657883101,0.6704858991980932 l -18.57336286871153 4.311391761447769" fill="#ffd714" stroke="none" /><path d="M 120.45610955862082 95.25157060432595 l 16.343765402519733 -3.793840458809003 a37.77831615387841,37.77831615387841 0 0,0 0.14158883480580123,0.6347149836538832 l -16.40664862432757 3.511947305605156" fill="#ffb811" stroke="none" /><path d="M 120.6074358757038 95.95851677861258 l 27.709566737989142 -5.434336892710271 a49.23742386037625,49.23742386037625 0 0,0 0.15595198117220704,0.8331017193742655 l -27.799004443071208 4.956557095873443" fill="#b4ff20" stroke="none" /><path d="M 120.67395015179393 96.31383870115 l 27.260000561907365 -4.860452808493041 a48.68991932344292,48.68991932344292 0 0,0 0.14001398050824954,0.8263704386966839 l -27.33962640393584 4.3904965814805195" fill="#bbff1f" stroke="none" /><path d="M 120.73433829027371 96.67025291283417 l 18.75855130634162 -3.0124535780841284 a39.99889795942814,39.99889795942814 0 0,0 0.10331926110579955,0.6807448397161024 l -18.80762646088672 2.6891096259759437" fill="#ffd614" stroke="none" /><path d="M 120.83666639777658 97.38593545837742 l 18.83465515963919 -2.3629021680625097 a39.982295478638974,39.982295478638974 0 0,0 0.07979256617218869,0.6836139784643454 l -18.872538078814966 2.0383444512733115" fill="#ffd614" stroke="none" /><path d="M 120.96714384426684 98.82574320788733 l 19.030204362741173 -1.0657792446228307 a40.060025275060944,40.060025275060944 0 0,0 0.032632499358629795,0.6888204854869722 l -19.0457304703333 0.7380476525128589" fill="#ffd714" stroke="none" /><line stroke="#e1ed5e" stroke-width="0.3" x1="184.98032266829074" x2="189.97916517819016" y1="98.17113171792111" y2="98.06355123074" /><path d="M 185.9800911702706 98.14961562048488 a86.0,86.0 0 0,1 -9.607161424134198,41.387399972396054" fill="none" id="id16" stroke="none" /><text fill="#e1ed5e" style="font-size:6.75px; font-family:Arial;" text-anchor="middle"><textPath startOffset="21.466115282336823" xlink:href="#id16">April</textPath></text><path d="M 120.99513854157772 99.54816195383933 l 24.769693823900965 -0.5330705505574783 a45.7754292867282,45.7754292867282 0 0,0 0.010173028698317885,0.7879122837556884 l -24.775199859717 0.10662200874132712" fill="#deff1b" stroke="none" /><path d="M 120.99980553446 99.90962569577887 l 12.779641243508305 -0.0549981848014013 a33.77975958745351,33.77975958745351 0 0,0 -0.002502441121435143,0.581479186639174 l -12.778694505097366 -0.16499048004145742" fill="#ff810b" stroke="none" /><path d="M 120.9904718944345 100.63252640178507 l 19.134352113109113 0.5765941305875308 a40.143037679006724,40.143037679006724 0 0,0 -0.02675794801808955,0.6905037420776804 l -19.121592032239818 -0.9058751196792175" fill="#ffd814" stroke="none" /><path d="M 120.9764740272857 100.99374915477107 l 57.20760613086995 2.7101795165898137 a78.27176679863204,78.27176679863204 0 0,0 -0.07534085854669915,1.3452616404773456 l -57.15247892143572 -3.6945128734025827" fill="#46fff3" stroke="none" /><path d="M 120.95626037817324 101.35467743843564 l 17.44185724341374 1.1274955581615806 a38.47826165078491,38.47826165078491 0 0,0 -0.04841562330608478,0.6605927136197186 l -17.419865061443318 -1.4275614082780697" fill="#ffc212" stroke="none" /><path d="M 120.92983693683757 101.71520430193887 l 19.141130197908982 1.5686194287372293 a40.20529698196607,40.20529698196607 0 0,0 -0.06246257361127274,0.6892692948780844 l -19.111293028020636 -1.8978701121638841" fill="#ffd914" stroke="none" /><path d="M 120.89721153311464 102.0752229133903 l 10.629150124507996 1.0555406329351884 a31.681432413169386,31.681432413169386 0 0,0 -0.05856191863948626,0.5422106351072127 l -10.609405904367458 -1.2383475899271925" fill="#ff6309" stroke="none" /><path d="M 120.8583938346157 102.4346265915055 l 18.871535096178278 2.2027171186803707 a39.99965261764583,39.99965261764583 0 0,0 -0.08571066659259158,0.6831983442200613 l -18.830822920338836 -2.5272332171878267" fill="#ffd614" stroke="none" /><path d="M 120.64145759157962 103.86396538481128 l 49.38543184310509 9.244676559738615 a71.243257488186,71.243257488186 0 0,0 -0.23601896183262472,1.2034556015665632 l -49.218982948296805 -10.093395888373124" fill="#3cffa7" stroke="none" /><path d="M 120.49622156327973 104.57218783832717 l 18.688226072159043 4.168869842825874 a40.14756562831286,40.14756562831286 0 0,0 -0.1562685377963944,0.6732007708992578 l -18.613696968432098 -4.4899392710736965" fill="#ffd814" stroke="none" /><path d="M 120.13307415673323 105.97154293290107 l 23.713214497487826 7.033425563650603 a45.734300413864155,45.734300413864155 0 0,0 -0.23035545533088203,0.752814956298768 l -23.58863226965081 -7.440567492501428" fill="#dfff1b" stroke="none" /><path d="M 120.02730092923936 106.31721596034902 l 29.226427295945136 9.21889842421902 a51.64591556213054,51.64591556213054 0 0,0 -0.27472614150717056,0.8455201229483039 l -29.063408903421717 -9.72061744714512" fill="#98ff23" stroke="none" /><path d="M 119.9155931802556 106.66101706037122 l 14.34204690389124 4.796875405256583 a36.122973353377695,36.122973353377695 0 0,0 -0.2023044228547889,0.5879913494172537 l -14.25735165009322 -5.043039457763137" fill="#ffa20e" stroke="none" /><path d="M 119.67450827220406 107.3425965602758 l 17.89975716514642 6.680253126135812 a40.105682097231124,40.105682097231124 0 0,0 -0.24694733885601283,0.6447015767670058 l -17.7821155466969 -6.987378269735961" fill="#ffd714" stroke="none" /><path d="M 119.12269723197855 108.67885076344098 l 29.104781150290332 13.20922718389162 a52.96203949378007,52.96203949378007 0 0,0 -0.38391270261355503,0.8269138069522155 l -28.873093830836947 -13.708261058122666" fill="#89ff24" stroke="none" /><path d="M 118.81262510543309 109.33194174019688 l 18.51572539020986 9.18466559826472 a41.66857926606494,41.66857926606494 0 0,0 -0.32426355484650576,0.6398027566035751 l -18.354883165577085 -9.502022566570991" fill="#ffec16" stroke="none" /><line stroke="#e1ed5e" stroke-width="0.3" x1="174.80103733775053" x2="179.2010983576182" y1="140.37084112569926" y2="142.7455964860345" /><path d="M 175.68104954172406 140.8457921977663 a86.0,86.0 0 0,1 -30.038265399797805,32.042727171017184" fill="none" id="id17" stroke="none" /><text fill="#e1ed5e" style="font-size:6.75px; font-family:Arial;" text-anchor="middle"><textPath startOffset="22.206326154141568" xlink:href="#id17">May</textPath></text><path d="M 118.48025628344425 109.97397251340804 l 21.22058908212128 11.452956548715012 a45.113971358923834,45.113971358923834 0 0,0 -0.3747114699202503,0.6802101602091583 l -21.02030120274952 -11.816537227321975" fill="#e6ff1a" stroke="none" /><path d="M 117.94076556474637 110.91462005526583 l 24.953291103464004 15.180828852584412 a50.20829165743309,50.20829165743309 0 0,0 -0.45554547345738217,0.7344843520497989 l -24.68828099033866 -15.608109535999484" fill="#a9ff21" stroke="none" /><path d="M 117.55443506779139 111.5257021239791 l 3.3674134170518153 2.210940074308694 a25.02836556602361,25.02836556602361 0 0,0 -0.23955351216266602,0.35809999763583716 l -3.328856799478428 -2.268576986150338" fill="#ff0000" stroke="none" /><path d="M 116.498646956653 112.99209946851258 l 21.467026000714 16.90452179667716 a48.32391008786378,48.32391008786378 0 0,0 -0.5202462138256071,0.6490871432596944 l -21.172861874833536 -17.271536773515106" fill="#bfff1e" stroke="none" /><path d="M 116.0416608686014 113.55231037782055 l 10.343975915469262 8.738794149521379 a34.54120972910165,34.54120972910165 0 0,0 -0.387614038149976,0.450882695686257 l -10.192019367748507 -8.915553944369163" fill="#ff8c0c" stroke="none" /><path d="M 115.80600337817218 113.82643327865902 l 14.279676033393576 12.491265704095683 a39.97210759270018,39.97210759270018 0 0,0 -0.457473443848093,0.5139762638060135 l -14.062543739897144 -12.735216137642563" fill="#ffd614" stroke="none" /><path d="M 115.07121518719521 114.62390073753431 l 15.237396360027669 14.785149644524497 a42.2315542964609,42.2315542964609 0 0,0 -0.5107190062886867,0.5173556569874415 l -14.980636728683447 -15.045245795492603" fill="#fff316" stroke="none" /><path d="M 114.81725581225074 114.88116024355365 l 13.460155880643505 13.518207359115646 a40.0766277558501,40.0766277558501 0 0,0 -0.49303803282578285,0.4825414858703377 l -13.225467895441927 -13.747898947908556" fill="#ffd714" stroke="none" /><path d="M 114.0293411484842 115.62618273729858 l 35.16742070309978 39.17023162313423 a73.6408066457838,73.6408066457838 0 0,0 -0.9505192275936702,0.8387227033758534 l -34.48795912259952 -39.76977746828237" fill="#3fffc2" stroke="none" /><path d="M 113.20401910651253 116.32954008644616 l 20.105082930782597 24.86415348320803 a52.975623341698466,52.975623341698466 0 0,0 -0.7140168216902645,0.5672581463803058 l -19.674108616374983 -25.20654554359346" fill="#89ff24" stroke="none" /><path d="M 112.63410532772338 116.77436683061366 l 11.614072507172049 15.420063991801038 a40.30453453759216,40.30453453759216 0 0,0 -0.5577668331861115,0.4126225688693661 l -11.346920703567372 -15.617696509410175" fill="#ffda14" stroke="none" /><path d="M 111.45004920935366 117.60387380957326 l 11.610865470417105 17.851120709086622 a42.29494558674676,42.29494558674676 0 0,0 -0.6137161715103145,0.3917026976335414 l -11.30186749685986 -18.048337835543972" fill="#fff417" stroke="none" /><line stroke="#e1ed5e" stroke-width="0.3" x1="143.8653032363475" x2="146.44561519142675" y1="172.8068346515853" y2="177.08958963109032" /><path d="M 144.38136562736335 173.6633856474863 a86.0,86.0 0 0,1 -40.68145358897372,12.25698825130547" fill="none" id="id18" stroke="none" /><text fill="#e1ed5e" style="font-size:6.75px; font-family:Arial;" text-anchor="middle"><textPath startOffset="21.466115282336833" xlink:href="#id18">June</textPath></text><path d="M 110.5260780823613 118.17145234162733 l 9.715012190339838 16.77128742859249 a40.38188700490528,40.38188700490528 0 0,0 -0.6044807606686087,0.34323995188641077 l -9.424882662750031 -16.93603054627353" fill="#ffdb14" stroke="none" /><path d="M 109.57404056367764 118.69057910512821 l 10.597715103202997 20.689011201968523 a44.24535975036385,44.24535975036385 0 0,0 -0.6808435765000262,0.34138910333791034 l -10.240017619020211 -20.868368146215733" fill="#f1ff19" stroke="none" /><path d="M 108.59647513512805 119.15986991738527 l 12.837947947408091 28.6132872848516 a52.36133155249965,52.36133155249965 0 0,0 -0.8255121106868216,0.36188024976043853 l -12.343515162063516 -28.830032087906496" fill="#90ff24" stroke="none" /><path d="M 107.59598834532513 119.57807347666477 l 4.5833068037414835 11.813119411244642 a33.6710888041063,33.6710888041063 0 0,0 -0.5421522773377926,0.20499560116285806 l -4.3792843056434165 -11.890263262514132" fill="#ff7f0b" stroke="none" /><path d="M 106.91757812671514 119.82793768551818 l 6.367280919076137 18.250614156718076 a40.329438258775895,40.329438258775895 0 0,0 -0.6574279699818271,0.22303526187860925 l -6.052183216157083 -18.35751240549481" fill="#ffda14" stroke="none" /><path d="M 106.2309692047433 120.05430185196036 l 5.8117596967871625 18.705080930540216 a40.58715404011667,40.58715404011667 0 0,0 -0.6689633204539553,0.2015531608629822 l -5.488921401892961 -18.802349460508925" fill="#ffde14" stroke="none" /><path d="M 105.18746579009965 120.34920634021253 l 4.786171442579983 18.775023143395362 a40.375472410054925,40.375472410054925 0 0,0 -0.674936998404328,0.16588309307219712 l -4.462281159432443 -18.85462749478159" fill="#ffdb14" stroke="none" /><path d="M 104.48393922423573 120.51570834832081 l 4.509452315537537 20.632440336431383 a42.119487551134085,42.119487551134085 0 0,0 -0.709630206467155,0.14870990937045211 l -4.1536306476410045 -20.707006226528378" fill="#fff216" stroke="none" /><path d="M 102.34483914955558 120.86867818915974 l 2.3166386679380584 20.617698596053284 a41.74744104981343,41.74744104981343 0 0,0 -0.7148104274591471,0.0740930234896449 l -1.9613956438733087 -20.654520987998687" fill="#ffed16" stroke="none" /><path d="M 101.98527174616119 120.90594882070398 l 0.9229992231558036 9.71966410047224 a30.76339069135078,30.76339069135078 0 0,0 -0.5276004744298546,0.04552358896082529 l -0.7555544309844074 -9.734111941711728" fill="#ff5607" stroke="none" /><path d="M 100.90346689309514 120.98055641714683 l 0.8848903111937891 20.549165928355507 a41.568209723112304,41.568209723112304 0 0,0 -0.7151308662038244,0.02463055298338546 l -0.5310390933153125 -20.561353279764987" fill="#ffeb16" stroke="none" /><line stroke="#e1ed5e" stroke-width="0.3" x1="102.19456741930631" x2="102.32365962044197" y1="184.97166512339345" y2="189.96999836594603" /><path d="M 102.22038585953345 185.97133177190398 a86.0,86.0 0 0,1 -42.740103519485714,-10.115201625700543" fill="none" id="id19" stroke="none" /><text fill="#e1ed5e" style="font-size:6.75px; font-family:Arial;" text-anchor="middle"><textPath startOffset="22.20632615414155" xlink:href="#id19">July</textPath></text><path d="M 100.54218724476979 120.99299961872073 l 0.5249892808598215 20.327110014552474 a41.333888346519885,41.333888346519885 0 0,0 -0.7114158772337136,0.012247669494137987 l -0.17501371373344002 -20.33313516132577" fill="#ffe715" stroke="none" /><path d="M 99.45781275523022 120.99299961872073 l -0.5259342596169455 20.36369873713801 a41.370489270077805,41.370489270077805 0 0,0 -0.7117293245019839,-0.024513397009462014 l 0.8763839357935725 -20.351628541702453" fill="#ffe815" stroke="none" /><path d="M 99.09653310690486 120.98055641714683 l -0.269687813976561 6.262764512342142 a27.268568485233256,27.268568485233256 0 0,0 -0.4687751704977676,-0.02423032177393258 l 0.37745105288781755 -6.257194383806008" fill="#ff2203" stroke="none" /><path d="M 98.01472825383883 120.90594882070398 l -3.7345886248917104 39.32716959748176 a60.50409372136342,60.50409372136342 0 0,0 -1.0359666606724984,-0.1073821801908122 l 4.4109878821698025 -39.25705804883519" fill="#37ff2e" stroke="none" /><path d="M 97.65516085044442 120.86867818915974 l -4.370920166007047 38.90046204329101 a60.14525373885232,60.14525373885232 0 0,0 -1.0278324857376187,-0.1244562000429323 l 5.039880074796055 -38.81946031452273" fill="#3bff2e" stroke="none" /><path d="M 97.2962882734958 120.8252237178851 l -5.262621369562351 40.53511559287487 a61.87530770290423,61.87530770290423 0 0,0 -1.0550370761870116,-0.14621852523978063 l 5.959587036936194 -40.43852250214248" fill="#30ff37" stroke="none" /><path d="M 96.58105272829116 120.7198165907248 l -1.3956082027517758 8.45779232479207 a29.572162694728775,29.572162694728775 0 0,0 -0.5015312456915966,-0.08719763572693705 l 1.5409884199154222 -8.432516110544126" fill="#ff4406" stroke="none" /><path d="M 96.22490169976321 120.6578951692458 l -2.9039200301522636 15.89067907423649 a37.1538364787408,37.1538364787408 0 0,0 -0.6281340568028819,-0.12038338695792426 l 3.177021701526841 -15.838338488930097" fill="#ffb010" stroke="none" /><path d="M 95.86986931433489 120.58985236759428 l -3.284181528136935 16.3725600856696 a37.69869971191222,37.69869971191222 0 0,0 -0.6351486595754314,-0.13310157704877884 l 3.565521649141753 -16.313602527894282" fill="#ffb711" stroke="none" /><path d="M 95.16358092515715 120.4354850818985 l -3.6641820695138834 15.482392418887725 a36.91008187442727,36.91008187442727 0 0,0 -0.617007761994136,-0.15164549617389123 l 3.93014311625123 -15.417025664399805" fill="#ffac10" stroke="none" /><path d="M 94.11515582081647 120.15858648285463 l -7.856104669551923 26.911156961422307 a49.03442079981792,49.03442079981792 0 0,0 -0.8081923882211771,-0.24350173686778784 l 8.318172032213347 -26.771939855448792" fill="#b7ff1f" stroke="none" /><path d="M 93.76903079525671 120.05430185196036 l -7.466504607565692 24.030858163315887 a46.16407826883801,46.16407826883801 0 0,0 -0.7568241319767667,-0.24231118734059595 l 7.879050084633399 -23.898774129315584" fill="#d9ff1c" stroke="none" /><path d="M 93.42475214034765 119.94407469862007 l -6.66476193393821 20.215589236511477 a42.285889688134496,42.285889688134496 0 0,0 -0.6893209480917186,-0.23385509165406665 l 7.011752614967154 -20.097871157959286" fill="#fff417" stroke="none" /><path d="M 92.40401165467489 119.57807347666478 l -7.10718963673595 18.318232545241138 a40.648658684858326,40.648658684858326 0 0,0 -0.6501441780672378,-0.25870578589962206 l 7.421454890845046 -18.19317991493545" fill="#ffdf14" stroke="none" /><path d="M 91.40352486487194 119.15986991738527 l -15.659194900501552 34.90129763518747 a59.253247725543986,59.253247725543986 0 0,0 -0.9269803920267886,-0.4255312324623873 l 16.25764328829576 -34.62657933239101" fill="#44ff2d" stroke="none" /><path d="M 90.7491055286396 118.85261126421891 l -8.77810779093348 17.889108380840078 a40.9267502380767,40.9267502380767 0 0,0 -0.6297771147941971,-0.3157833193162525 l 9.084738813410437 -17.735357220614524" fill="#ffe215" stroke="none" /><path d="M 90.10565033884886 118.52300852407294 l -5.766010000301533 10.794428743995812 a33.23791498715285,33.23791498715285 0 0,0 -0.5023312379986543,-0.27391104307338016 l 5.950964050168827 -10.693577049162666" fill="#ff790b" stroke="none" /><line stroke="#e1ed5e" stroke-width="0.3" x1="58.666819895761336" x2="56.23545636021788" y1="174.27360380694188" y2="178.64263932499728" /><path d="M 58.180547188652646 175.14741091055294 a86.0,86.0 0 0,1 -31.652253787137756,-30.449443065178592" fill="none" id="id20" stroke="none" /><text fill="#e1ed5e" style="font-size:6.75px; font-family:Arial;" text-anchor="middle"><textPath startOffset="22.20632615414155" xlink:href="#id20">August</textPath></text><path d="M 89.7882731507175 118.34994917583269 l -2.9168586163948387 5.241445267182772 a26.99840084330061,26.99840084330061 0 0,0 -0.40414193315462216,-0.22948233710174604 l 3.0066493164706682 -5.190459764286392" fill="#ff1e03" stroke="none" /><path d="M 89.4739219176387 118.17145234162733 l -10.661245223635598 18.404795021265627 a42.26966453645419,42.26966453645419 0 0,0 -0.6264608421236539,-0.37012410779178384 l 10.976473936787634 -18.218552341180093" fill="#fff417" stroke="none" /><path d="M 89.1626897886671 117.98757091392108 l -9.162607188731487 15.207929213963133 a38.7548438875679,38.7548438875679 0 0,0 -0.568442762892721,-0.3491839728473134 l 9.423029151556516 -15.047956774287442" fill="#ffc512" stroke="none" /><path d="M 88.24862548938628 117.40417183066458 l -11.169587757232824 16.542526529895703 a40.96033252876386,40.96033252876386 0 0,0 -0.5809406212975902,-0.3995762566278826 l 11.452685263153304 -16.347809483902722" fill="#ffe315" stroke="none" /><path d="M 87.95078237400918 117.19931262002967 l -13.713604981921334 19.575094960762325 a44.900780412426705,44.900780412426705 0 0,0 -0.6291939349350077,-0.44891316644103185 l 14.04852624470523 -19.33613753247707" fill="#e9ff1a" stroke="none" /><path d="M 87.36589467227662 116.77436683061367 l -12.304637753488914 16.336931032379976 a41.452369686697054,41.452369686697054 0 0,0 -0.5662616189990871,-0.43418526281434255 l 12.584028100981488 -16.122706427738265" fill="#ffe915" stroke="none" /><path d="M 86.79598089348748 116.32954008644616 l -17.191646637209033 21.26107821033514 a48.342021885088315,48.342021885088315 0 0,0 -0.642557254984502,-0.5287808757770371 l 17.555074020738225 -20.96200221570092" fill="#bfff1e" stroke="none" /><path d="M 86.24171649860922 115.8653595955263 l -19.413367093863037 22.386517175122872 a50.63165491755659,50.63165491755659 0 0,0 -0.653528440495166,-0.5766628642881346 l 19.79583788726479 -22.04903116906245" fill="#a4ff21" stroke="none" /><path d="M 85.18274418774928 114.88116024355367 l -5.934960438540751 5.960556964404655 a29.411420494361025,29.411420494361025 0 0,0 -0.3556812364274669,-0.36030321465267967 l 6.036682300023751 -5.857513255771311" fill="#ff4206" stroke="none" /><path d="M 84.9287848128048 114.62390073753433 l -45.21364556158558 43.871702212602976 a84.0,84.0 0 0,0 -0.99797379448417,-1.0463715336699995 l 45.9621259074487 -43.08692356235048" fill="#4dd2ff" stroke="none" /><path d="M 84.43433777217949 114.09645910891817 l -14.228956101178731 12.885921260989774 a40.19661841246264,40.19661841246264 0 0,0 -0.46004292902371696,-0.5168631076397567 l 14.448657879850787 -12.639083983609153" fill="#ffd914" stroke="none" /><path d="M 83.95833913139862 113.55231037782056 l -3.837881107768084 3.242317387936504 a26.02413708426418,26.02413708426418 0 0,0 -0.28614654057502664,-0.3446819415864947 l 3.893123648236647 -3.175774189236248" fill="#ff0f01" stroke="none" /><path d="M 83.72743513129214 113.27417163493432 l -24.054328908507742 19.622062844481924 a52.04248845552607,52.04248845552607 0 0,0 -0.5602797358041014,-0.6990351173632692 l 24.388526556366706 -19.205099893540396" fill="#93ff23" stroke="none" /><path d="M 83.50135304334701 112.99209946851258 l -13.212415856406516 10.404309000415731 a37.81718105208938,37.81718105208938 0 0,0 -0.39832869717867647,-0.5148935363521757 l 13.389551370803261 -10.175337469950303" fill="#ffb911" stroke="none" /><path d="M 83.28015986056508 112.70617746262583 l -11.65641125417143 8.858244381387776 a35.64036942316561,35.64036942316561 0 0,0 -0.3669918256468835,-0.4916455234010167 l 11.8071643465134 -8.65628597847745" fill="#ff9b0e" stroke="none" /><path d="M 83.06392112726016 112.41649034213515 l -24.795958052756482 18.178869855264903 a51.74590777597432,51.74590777597432 0 0,0 -0.5204657801978078,-0.7228814474712142 l 25.105203625329896 -17.749354802342552" fill="#97ff23" stroke="none" /><path d="M 82.85270091963577 112.12312394758628 l -23.67190579308226 16.73601461432177 a49.99057276162983,49.99057276162983 0 0,0 -0.4907148247394149,-0.7069113042781858 l 23.956481524983808 -16.32606204785657" fill="#abff21" stroke="none" /><path d="M 82.44556493220864 111.52570212397912 l -23.54634497904973 15.459805871788932 a49.16799530434887,49.16799530434887 0 0,0 -0.45842163609960784,-0.7114805594359657 l 23.808971478526384 -15.052203712431519" fill="#b5ff20" stroke="none" /><path d="M 82.24976979558568 111.22182372390057 l -11.749003915901392 7.4278051246272945 a34.90004971161275,34.90004971161275 0 0,0 -0.3166520736861137,-0.5105439669972425 l 11.875120629255461 -7.224464826264788" fill="#ff910d" stroke="none" /><path d="M 82.05923443525364 110.91462005526583 l -24.348220214134713 14.812721993392852 a49.50004492013201,49.50004492013201 0 0,0 -0.4365883320478589,-0.7317471570261536 l 24.599589421880804 -14.391412742480586" fill="#b1ff20" stroke="none" /><line stroke="#e1ed5e" stroke-width="0.3" x1="26.63291911575756" x2="22.317208475507996" y1="142.92168965132927" y2="145.44649492493687" /><path d="M 25.769776987707644 143.4266507060508 a86.0,86.0 0 0,1 -11.730757126820373,-40.83630448921669" fill="none" id="id21" stroke="none" /><text fill="#e1ed5e" style="font-size:6.75px; font-family:Arial;" text-anchor="middle"><textPath startOffset="21.46611528233685" xlink:href="#id21">September</textPath></text><path d="M 81.87401531095188 110.60418214915194 l -41.83600984494149 24.475176184912165 a69.46943334750813,69.46943334750813 0 0,0 -0.594949472189277,-1.03734455320227 l 42.25111131328315 -23.751411785851587" fill="#3aff93" stroke="none" /><path d="M 81.35079622478065 109.6543875284942 l -17.67364544329692 9.149356948821646 a40.90146918778412,40.90146918778412 0 0,0 -0.31829392868398604,-0.628024117846352 l 17.828518041767172 -8.843778619272609" fill="#ffe215" stroke="none" /><path d="M 81.18737489456691 109.33194174019688 l -25.712980118710448 12.75484049088654 a49.70267065158149,49.70267065158149 0 0,0 -0.37359069999539635,-0.7697074959006865 l 25.928724075320563 -12.310344039020569" fill="#afff20" stroke="none" /><path d="M 80.87730276802145 108.67885076344099 l -12.967374691426311 5.8852529209273285 a35.24040056779047,35.24040056779047 0 0,0 -0.2459426133738362,-0.5545356662042908 l 13.066758389531426 -5.6611689182303415" fill="#ff950d" stroke="none" /><path d="M 80.73074385275274 108.34839909993369 l -44.35253885684591 19.215723359677394 a69.33623617208603,69.33623617208603 0 0,0 -0.46504480155508654,-1.099228538862618 l 44.676734639593306 -18.449420295148617" fill="#3aff91" stroke="none" /><path d="M 80.58989483394504 108.01547362559985 l -25.81918440998691 10.662126243121815 a48.9340512568653,48.9340512568653 0 0,0 -0.3148029713617852,-0.7813151581161667 l 25.99888999560608 -10.216111717162843" fill="#b8ff1f" stroke="none" /><path d="M 80.45479744820244 107.68017299344265 l -18.62286256685711 7.317744892514095 a41.00900798380479,41.00900798380479 0 0,0 -0.2525094914524484,-0.6592226020420655 l 18.746066337903066 -6.996098723638871" fill="#ffe315" stroke="none" /><path d="M 80.20201598880116 107.00284435728193 l -17.325177709386217 6.128175620934611 a39.37705958805245,39.37705958805245 0 0,0 -0.2205287265738013,-0.6409597066321739 l 17.428097266903247 -5.82904321121314" fill="#ffce13" stroke="none" /><path d="M 80.0844068197444 106.66101706037122 l -46.613888965333075 15.590593101497998 a70.15202170540778,70.15202170540778 0 0,0 -0.3731678300652534,-1.148492487195248 l 46.87534904641458 -14.785901714324947" fill="#3bff9b" stroke="none" /><path d="M 79.97269907076064 106.31721596034903 l -27.382187842970186 8.637169565787126 a49.7121038793026,49.7121038793026 0 0,0 -0.2503909368011597,-0.818292068988839 l 27.526805552277477 -8.16455052424624" fill="#aeff20" stroke="none" /><path d="M 79.86692584326677 105.97154293290107 l -45.90200547905043 13.614701574659387 a68.87853596305769,68.87853596305769 0 0,0 -0.32736119283897325,-1.1395872580262971 l 46.129559308775505 -12.822556841128495" fill="#39ff8c" stroke="none" /><path d="M 79.76711848015287 105.62410040840567 l -8.688009964386838 2.414991672887025 a30.017411043165254,30.017411043165254 0 0,0 -0.13409481300947534,-0.4990166837031283 l 8.728292853738088 -2.2650840560083574" fill="#ff4b07" stroke="none" /><path d="M 79.67330655649465 105.27499134158121 l -26.484002833003174 6.8728780715262365 a48.36126566963938,48.36126566963938 0 0,0 -0.2021700929602451,-0.807569024849961 l 26.59838424025848 -6.415981207278883" fill="#bfff1e" stroke="none" /><path d="M 79.58551787078972 104.9243191809786 l -52.247468101084465 12.602975069330874 a74.74600360558927,74.74600360558927 0 0,0 -0.2909379063654071,-1.253352886069736 l 52.456666573380424 -11.701753525912565" fill="#41ffce" stroke="none" /><path d="M 79.29508885075956 103.50808413554451 l -14.053317537344638 2.3810882330850642 a35.25360708660003,35.25360708660003 0 0,0 -0.09622261479239434,-0.5991783141639078 l 14.092221906498322 -2.1388306892279427" fill="#ff960d" stroke="none" /><path d="M 79.23777060512086 103.15116336523772 l -14.718211274045748 2.2338395018427533 a35.88676533124105,35.88676533124105 0 0,0 -0.08743716210083632,-0.6115353080838757 l 14.754482487163184 -1.9801587217784768" fill="#ff9e0e" stroke="none" /><path d="M 79.18660465613746 102.79330883721812 l -14.202493635845089 1.9060778084551548 a35.32982756658661,35.32982756658661 0 0,0 -0.07570423424121418,-0.6034372329629477 l 14.233199379333152 -1.6613228212047986" fill="#ff970d" stroke="none" /><path d="M 79.07016306316243 101.71520430193888 l -30.508550184788515 2.5001817587392123 a51.610823955008,51.610823955008 0 0,0 -0.06493978947907,-0.8860518325388993 l 30.54706653293192 -1.9746567897035525" fill="#98ff23" stroke="none" /><path d="M 79.0235259727143 100.99374915477108 l -25.494702230200577 1.2077977814310712 a46.52329558045795,46.52329558045795 0 0,0 -0.031010805279026873,-0.8002510908359323 l 25.511715168330806 -0.7687694435811422" fill="#d5ff1c" stroke="none" /><path d="M 79.0095281055655 100.63252640178507 l -28.838247911074628 0.8690111054537314 a49.85133832046621,49.85133832046621 0 0,0 -0.018463837358336756,-0.8579419697861097 l 28.848933811117973 -0.3724793198774928" fill="#adff20" stroke="none" /><line stroke="#e1ed5e" stroke-width="0.3" x1="15.007084014347285" x2="10.007500721073583" y1="101.09737516637583" y2="101.16192664675087" /><path d="M 14.007167355692545 101.11028546245083 a86.0,86.0 0 0,1 10.666146001902534,-42.60595125391555" fill="none" id="id22" stroke="none" /><text fill="#e1ed5e" style="font-size:6.75px; font-family:Arial;" text-anchor="middle"><textPath startOffset="22.20632615414155" xlink:href="#id22">October</textPath></text><path d="M 79.00175016825051 100.2711162175752 l -20.05487991153991 0.258936017482779 a41.0565514515192,41.0565514515192 0 0,0 -0.003041513732227972,-0.7067406765413011 l 20.05636572256164 0.08631413726219747" fill="#ffe415" stroke="none" /><path d="M 79.00019446554 99.90962569577889 l -48.805181630446164 -0.21003691319898657 a69.80563358348856,69.80563358348856 0 0,0 0.015513447384642732,-1.201533596359398 l 48.79433517594381 1.0501067676188565" fill="#3aff97" stroke="none" /><path d="M 79.01574976396665 99.18683210126434 l -13.743707983570946 -0.5325871554203025 a34.754023346489944,34.754023346489944 0 0,0 0.028310282801294565,-0.5975853252658172 l 13.732504092536153 0.7690835873091288" fill="#ff8f0d" stroke="none" /><path d="M 79.05617556472873 98.46500227214037 l -19.631848370104116 -1.4388414463141173 a40.684504950198544,40.684504950198544 0 0,0 0.05720147662870658,-0.6980029008975135 l 19.604172409655913 1.7765582644194091" fill="#ffdf14" stroke="none" /><path d="M 79.12142395522702 97.74499172005258 l -23.85637071397622 -2.576627513971657 a44.99511268963782,44.99511268963782 0 0,0 0.08979663282792658,-0.7693227121901396 l 23.808483728144704 2.9868939644866583" fill="#e8ff1a" stroke="none" /><path d="M 79.21141760316559 97.0276538004421 l -14.20274435308724 -2.030704758763142 a35.347184705593456,35.347184705593456 0 0,0 0.09130364065670848,-0.601576913724751 l 14.16568481899123 2.274880784879985" fill="#ff970d" stroke="none" /><path d="M 79.26566170972629 96.67025291283419 l -39.550138986910284 -6.351394399233997 a61.05688086582057,61.05688086582057 0 0,0 0.1755767322318294,-1.0362638124612307 l 39.43495039315823 7.031244000011056" fill="#32ff2f" stroke="none" /><path d="M 79.3925641242962 95.95851677861259 l -19.38207083450313 -3.8011674303323004 a40.751292202464015,40.751292202464015 0 0,0 0.1409232158150823,-0.687191648175763 l 19.31376832277305 4.134234734671466" fill="#ffe015" stroke="none" /><path d="M 79.81627453868168 94.20196356495316 l -13.1225706670162 -3.7696283074525803 a34.653276474428466,34.653276474428466 0 0,0 0.16962630796804118,-0.5718955847135428 l 13.055738461936452 3.9949532789126625" fill="#ff8d0d" stroke="none" /><path d="M 80.02781315780177 93.51064311812611 l -22.729198649239212 -7.385164320728185 a44.89889376688248,44.89889376688248 0 0,0 0.24515374599830692,-0.732978496777172 l 22.598707609469134 7.775315920427679" fill="#e9ff1a" stroke="none" /><path d="M 80.14247586403 93.16781622104843 l -12.673573018746449 -4.3604721015139845 a34.40272994615574,34.40272994615574 0 0,0 0.19748300508291336,-0.5583110487168659 l 12.596636932853727 4.577980776657461" fill="#ff8a0c" stroke="none" /><path d="M 80.2630227832202 92.82701384747504 l -18.093125553977032 -6.575563098093665 a40.250953804136245,40.250953804136245 0 0,0 0.24226361282265615,-0.6491460364743695 l 17.977257352652746 6.886032271597376" fill="#ffd914" stroke="none" /><path d="M 80.38941819471856 92.48833698450439 l -14.006820145931897 -5.365190788299796 a35.99920940567671,35.99920940567671 0 0,0 0.2266346515519121,-0.576760467976463 l 13.912391944498294 5.605500261172023" fill="#ffa00e" stroke="none" /><path d="M 80.52162464483688 92.15188598940014 l -13.355210289303674 -5.3810038606843404 a35.398501464396304,35.398501464396304 0 0,0 0.23258216756256145,-0.5632161670047859 l 13.260606434854914 5.610094598142437" fill="#ff980e" stroke="none" /><line stroke="#e1ed5e" stroke-width="0.3" x1="26.266209847984243" x2="21.928928074336255" y1="57.711370442889674" y2="55.22380399835377" /><path d="M 25.398753493254645 57.213857153982495 a86.0,86.0 0 0,1 29.58750427330803,-30.492523968695096" fill="none" id="id23" stroke="none" /><text fill="#e1ed5e" style="font-size:6.75px; font-family:Arial;" text-anchor="middle"><textPath startOffset="21.46611528233685" xlink:href="#id23">November</textPath></text><path d="M 82.15384107792192 88.93136811851018 l -17.768131478793542 -11.020237319380326 a41.90818325018118,41.90818325018118 0 0,0 0.38550021406677065,-0.6097687605769797 l 17.57580366848081 11.324453727671521" fill="#ffef16" stroke="none" /><path d="M 82.34701348167596 88.62581576622439 l -30.41025429809837 -19.593955652971054 a57.17605098135515,57.17605098135515 0 0,0 0.5401867091260927,-0.8227414180789291 l 30.068470953614355 20.114515135027652" fill="#5aff2a" stroke="none" /><path d="M 82.95767976084542 87.72973835380427 l -19.88605832401678 -14.317718205211884 a45.50412965746902,45.50412965746902 0 0,0 0.46313970442039637,-0.6317220363425576 l 19.63665600708275 14.657902685225944" fill="#e1ff1b" stroke="none" /><path d="M 84.07557802195018 86.31012108654704 l -15.179814116531787 -13.049755744383607 a41.01806388241707,41.01806388241707 0 0,0 0.4648872830618595,-0.5314465284323616 l 14.952934969892084 13.309117829018911" fill="#ffe315" stroke="none" /><path d="M 85.31137513191541 84.99185889309783 l -13.745265414430364 -14.044261103013225 a40.65129998862024,40.65129998862024 0 0,0 0.5043021340939764,-0.4851382534403429 l 13.50148003672396 14.278782443215881" fill="#ffdf14" stroke="none" /><path d="M 86.37877921826538 84.01681056812374 l -20.15979508857916 -23.655576028886298 a52.08059869551937,52.08059869551937 0 0,0 0.687321209481923,-0.5756117466413034 l 19.749616342138125 23.999088932921413" fill="#93ff23" stroke="none" /><path d="M 86.93701828274178 83.55741782278169 l -24.34266688209786 -30.64050071299908 a60.1331792073693,60.1331792073693 0 0,0 0.8159999251840183,-0.6369008847824643 l 23.811634401754418 31.054979987004767" fill="#3bff2e" stroke="none" /><path d="M 87.80319425747018 82.90503203632743 l -11.655206000220955 -16.335865093679406 a41.06749399567569,41.06749399567569 0 0,0 0.5789907689264083,-0.4056200344954246 l 11.372284091710886 16.534069970938774" fill="#ffe415" stroke="none" /><line stroke="#e1ed5e" stroke-width="0.3" x1="56.762969772571076" x2="54.21961505331055" y1="26.818313649435495" y2="22.513508569990535" /><path d="M 56.25429882871897 25.957352633546506 a86.0,86.0 0 0,1 42.265352541879196,-11.944610805530505" fill="none" id="id24" stroke="none" /><text fill="#e1ed5e" style="font-size:6.75px; font-family:Arial;" text-anchor="middle"><textPath startOffset="22.20632615414155" xlink:href="#id24">December</textPath></text><path d="M 90.58718382345135 81.22770947309562 l -8.675522225452271 -17.301880822294056 a40.35509663817732,40.35509663817732 0 0,0 0.623637541983786,-0.3060162334233344 l 8.376413416458059 17.448652215852217" fill="#ffdb14" stroke="none" /></svg>